<svg xmlns="http://www.w3.org/2000/svg" width="3264" height="1767" viewBox="0 0 3264 1767" version="1.1"><path d="M 863.509 204.682 C 849.327 208.650, 834.910 218.157, 826.967 228.778 C 812.648 247.925, 810.069 272.817, 820.129 294.781 C 826.512 308.719, 840.769 321.660, 855.116 326.540 C 861.550 328.728, 862.368 328.805, 864.480 327.421 C 867.801 325.245, 879.846 325.359, 884.593 327.611 C 889.552 329.964, 893.219 329.769, 901.309 326.719 C 912.953 322.329, 926.026 310.373, 935.175 295.747 C 939.982 288.063, 942.458 265.970, 939.980 252.886 C 938.973 247.573, 938.245 245.843, 932.452 235 C 928.989 228.518, 914.397 213.935, 908.516 211.079 C 896.256 205.125, 894.088 204.623, 879.500 204.369 C 871.800 204.235, 864.604 204.376, 863.509 204.682 M 881 418.143 C 878.525 418.651, 874.632 418.806, 872.349 418.487 C 870.066 418.168, 865.341 418.382, 861.849 418.961 C 858.357 419.541, 837.493 420.133, 815.484 420.276 L 775.467 420.537 769.942 423.240 C 761.730 427.258, 755.618 433.600, 752.976 440.845 C 751.762 444.175, 749.917 447.670, 748.876 448.612 C 747.123 450.199, 747.103 450.457, 748.610 452.122 C 750.777 454.516, 751.475 461.523, 750.068 466.748 C 748.754 471.628, 743.374 476, 738.683 476 C 737.114 476, 731.481 474.176, 726.165 471.946 C 717.334 468.242, 715.378 467.814, 703.500 466.981 C 696.350 466.480, 685.757 466.055, 679.960 466.035 C 673.326 466.013, 667.212 465.387, 663.460 464.346 C 660.182 463.436, 656.600 462.713, 655.500 462.741 C 652.146 462.824, 628.735 467.978, 627.581 468.887 C 626.986 469.356, 624.700 470.053, 622.500 470.437 C 620.300 470.821, 614.675 472.408, 610 473.963 C 605.325 475.518, 597.225 477.986, 592 479.447 C 586.775 480.907, 578.675 483.843, 574 485.970 C 569.325 488.098, 563.587 490.396, 561.250 491.078 C 558.913 491.759, 557 492.464, 557 492.645 C 557 494.229, 565.410 500.101, 569 501.024 C 571.475 501.660, 576.463 503.030, 580.084 504.068 C 583.705 505.107, 591.355 506.618, 597.084 507.427 C 602.813 508.235, 610.200 509.565, 613.500 510.381 C 620.814 512.190, 632.386 512.808, 672 513.506 C 706.234 514.109, 714.359 514.562, 728 516.627 C 744.836 519.176, 792.845 519.774, 918.500 518.998 C 1036.180 518.272, 1042.084 518.149, 1055 516.150 C 1066.474 514.375, 1073.604 514.035, 1102.500 513.884 C 1146.580 513.654, 1164.237 512.701, 1172.840 510.088 C 1176.503 508.975, 1182.875 507.357, 1187 506.492 C 1191.125 505.628, 1197.342 503.515, 1200.816 501.797 L 1207.131 498.675 1204.316 497.474 C 1202.767 496.814, 1200.660 495.330, 1199.632 494.178 C 1198.605 493.026, 1195.455 491.327, 1192.632 490.404 C 1189.810 489.481, 1185.925 487.939, 1184 486.978 C 1178.292 484.128, 1141.914 472.272, 1136.559 471.517 C 1133.841 471.134, 1129.341 469.920, 1126.559 468.821 C 1123.776 467.721, 1117.814 466.176, 1113.309 465.387 C 1108.805 464.599, 1103.180 463.233, 1100.809 462.353 C 1098.137 461.361, 1092.131 460.599, 1085 460.347 C 1071.272 459.862, 1070.640 459.776, 1068.651 458.125 C 1067.797 457.417, 1064.216 456.344, 1060.692 455.740 C 1055.371 454.829, 1053.121 454.930, 1047.426 456.335 C 1043.654 457.266, 1038.939 459.156, 1036.947 460.537 C 1031.967 463.988, 1027.830 465, 1018.707 465 C 1009.765 465, 1006.814 463.830, 1002.037 458.389 C 998.598 454.472, 998.482 453.162, 1000.605 442.186 C 1001.672 436.667, 998.736 431.834, 991.127 426.588 C 982.278 420.486, 978.608 420.070, 933.409 420.031 C 904.376 420.006, 896.358 419.709, 892.409 418.511 C 886.942 416.852, 887.239 416.862, 881 418.143 M 386.202 657.250 C 385.061 660.138, 382.242 666.775, 379.939 672 C 371.414 691.335, 360.315 725.837, 355.006 749.500 C 354.019 753.900, 352.303 761.550, 351.194 766.500 C 348.289 779.460, 345.230 797.877, 343.968 810 C 338.063 866.751, 337.638 874.053, 337.565 920 C 337.509 955.635, 337.741 962.560, 339.202 969 C 340.138 973.125, 342.019 983.025, 343.382 991 C 344.744 998.975, 347.031 1009.465, 348.463 1014.311 C 351.884 1025.883, 362.841 1055.087, 364.480 1057 C 365.187 1057.825, 368.505 1064.037, 371.854 1070.805 C 375.202 1077.573, 378.939 1084.510, 380.157 1086.221 C 381.375 1087.932, 383.301 1091, 384.436 1093.039 C 390.624 1104.154, 405.150 1123.131, 416.938 1135.500 C 420.607 1139.350, 424.916 1144.240, 426.512 1146.367 C 428.109 1148.494, 430.861 1151.194, 432.627 1152.367 C 434.392 1153.540, 441.285 1159, 447.944 1164.500 C 454.603 1170, 461.502 1175.487, 463.276 1176.694 C 465.049 1177.900, 467.810 1179.925, 469.411 1181.194 C 473.860 1184.719, 497.394 1198.429, 507.500 1203.383 C 525.633 1212.272, 539.008 1217.461, 553 1221.034 C 558.775 1222.508, 568.687 1225.118, 575.027 1226.833 C 586.013 1229.806, 591.030 1230.471, 622 1233.061 C 630.424 1233.766, 717.494 1233.989, 889 1233.746 C 1121.279 1233.416, 1144.578 1233.237, 1155.845 1231.692 C 1162.635 1230.762, 1168.485 1229.819, 1168.845 1229.598 C 1169.205 1229.376, 1175.350 1228.009, 1182.500 1226.559 C 1209.493 1221.086, 1250.868 1204.211, 1271.875 1190.108 C 1274.831 1188.124, 1279.277 1185.315, 1281.756 1183.867 C 1288.263 1180.067, 1299.762 1171.987, 1303.626 1168.500 C 1305.454 1166.850, 1309.494 1163.475, 1312.602 1161 C 1321.880 1153.612, 1328.970 1146.893, 1334.901 1139.868 C 1337.980 1136.220, 1344.377 1128.782, 1349.116 1123.337 C 1353.855 1117.893, 1359.883 1110.078, 1362.512 1105.969 C 1365.142 1101.861, 1368.742 1096.700, 1370.512 1094.500 C 1372.283 1092.300, 1375.124 1087.575, 1376.826 1084 C 1378.528 1080.425, 1382.631 1072.775, 1385.944 1067 C 1389.256 1061.225, 1391.975 1056.050, 1391.984 1055.500 C 1391.994 1054.950, 1393.380 1051.587, 1395.064 1048.027 C 1398.702 1040.337, 1406.093 1018.733, 1408.929 1007.500 C 1410.040 1003.100, 1412.320 991.400, 1413.997 981.500 C 1415.673 971.600, 1417.283 962.840, 1417.574 962.034 C 1417.865 961.228, 1418.089 943.267, 1418.071 922.121 C 1418.039 884.740, 1416.893 857.170, 1414.989 848 C 1414.476 845.525, 1413.572 836.300, 1412.981 827.500 C 1412.391 818.700, 1411.491 808.800, 1410.981 805.500 C 1410.472 802.200, 1409.124 793.650, 1407.986 786.500 C 1403.972 761.276, 1395.509 726.398, 1388.938 708 C 1387.269 703.325, 1384.881 696.350, 1383.632 692.500 C 1382.383 688.650, 1379.593 681.306, 1377.431 676.180 C 1373.556 666.993, 1373.458 666.868, 1370.531 667.449 C 1366.495 668.249, 1366.321 668.508, 1364.099 677.026 C 1360.522 690.739, 1354.841 702.160, 1348.856 707.669 C 1345.602 710.665, 1325.850 720.695, 1319.618 722.516 C 1316.803 723.339, 1313.150 724.906, 1311.500 725.999 C 1309.850 727.092, 1307.816 727.990, 1306.980 727.993 C 1305.003 728.002, 1294.775 735.700, 1291.971 739.291 C 1290.008 741.803, 1289.920 742.401, 1291.085 745.291 C 1291.796 747.056, 1294.694 751.200, 1297.524 754.500 C 1300.355 757.800, 1304.380 763.200, 1306.470 766.500 C 1308.560 769.800, 1311.025 773.625, 1311.949 775 C 1315.076 779.654, 1320.843 792.455, 1323.887 801.500 C 1329.121 817.052, 1330.321 826.871, 1329.627 848.500 C 1328.826 873.474, 1325.709 887.400, 1317.337 903.409 C 1308.022 921.221, 1299.098 931.633, 1282.638 943.897 C 1264.558 957.368, 1240.013 967.537, 1212.500 972.956 C 1206.450 974.148, 1199.625 975.525, 1197.333 976.016 C 1195.042 976.507, 1180.288 977.604, 1164.548 978.454 C 1140.192 979.770, 1097.845 980, 880.215 980.003 C 717.650 980.005, 618.672 979.635, 608.500 978.987 C 575.016 976.855, 565.184 975.947, 560.418 974.551 C 557.713 973.759, 551.235 972.379, 546.022 971.485 C 540.809 970.591, 534.509 969.013, 532.022 967.978 C 529.535 966.943, 525.475 965.585, 523 964.960 C 517.586 963.594, 497.470 953.894, 490.500 949.290 C 478.427 941.313, 474.354 937.995, 466.825 930 C 462.422 925.325, 458.122 920.150, 457.269 918.500 C 456.416 916.850, 454.657 914.228, 453.359 912.673 C 452.062 911.119, 451 909.267, 451 908.558 C 451 907.850, 450.053 906.066, 448.896 904.595 C 447.739 903.125, 445.973 899.213, 444.970 895.902 C 443.968 892.592, 442.651 889.285, 442.044 888.553 C 441.009 887.306, 439.168 879.151, 435.371 859 C 433.214 847.551, 433.928 827.683, 436.754 820.500 C 437.836 817.750, 439.035 813.025, 439.419 810 C 439.802 806.975, 441.214 802.165, 442.558 799.312 C 443.901 796.458, 445 793.504, 445 792.746 C 445 791.273, 450.711 779.723, 455.504 771.500 C 460.180 763.479, 467.629 754.139, 476.754 744.854 L 485.251 736.208 482.436 732.680 C 480.531 730.292, 478.470 728.940, 476.060 728.497 C 474.102 728.138, 471.375 726.825, 470 725.581 C 468.625 724.337, 465.925 722.722, 464 721.993 C 460.794 720.779, 447.008 709.690, 446.120 707.611 C 445.816 706.899, 433.355 692.058, 424.196 681.500 C 423.242 680.400, 420.895 677.330, 418.980 674.678 C 407.514 658.790, 399.300 652, 391.546 652 C 388.533 652, 388.115 652.411, 386.202 657.250 M 669.869 792.007 C 667.872 793.062, 664.798 796.080, 663.039 798.713 C 660.093 803.123, 659.869 804.028, 660.201 810.216 C 660.514 816.044, 660.954 817.344, 663.531 820.036 C 668.310 825.029, 673.364 826.751, 680.474 825.809 C 685.844 825.096, 686.963 824.525, 690.750 820.563 C 695.106 816.005, 695.629 814.229, 695.040 806 C 694.658 800.662, 692.471 797.370, 686.745 793.514 C 680.662 789.418, 675.621 788.968, 669.869 792.007 M 1072.500 791.148 C 1062.477 796.599, 1059.364 801.547, 1060.293 810.549 C 1061.935 826.462, 1080.254 831.718, 1091.906 819.620 C 1095.013 816.393, 1095.320 815.530, 1095.406 809.791 C 1095.548 800.309, 1094.738 798.575, 1088.043 794.029 C 1081.821 789.804, 1076.713 788.857, 1072.500 791.148 M 742 1061.058 C 732.182 1065.190, 727.374 1079.172, 732.441 1088.855 C 734.692 1093.156, 743.985 1103.278, 751.500 1109.615 C 758.812 1115.780, 769.049 1123, 770.479 1123 C 770.937 1123, 772.709 1124.066, 774.417 1125.369 C 778.369 1128.383, 789.901 1133.790, 796.452 1135.699 C 799.228 1136.508, 802.512 1137.817, 803.748 1138.607 C 804.984 1139.397, 809.484 1140.760, 813.748 1141.637 C 818.012 1142.513, 822.789 1143.892, 824.365 1144.700 C 828.176 1146.655, 855.225 1150.085, 871.681 1150.700 C 885.744 1151.226, 918.421 1148.164, 928.471 1145.379 C 931.237 1144.612, 937.100 1143.058, 941.500 1141.924 C 945.900 1140.791, 951.835 1138.770, 954.688 1137.432 C 957.542 1136.094, 960.419 1135, 961.083 1135 C 961.747 1135, 965.565 1133.425, 969.567 1131.500 C 973.569 1129.575, 977.274 1128, 977.799 1128 C 978.325 1128, 979.283 1127.364, 979.928 1126.586 C 980.574 1125.809, 982.991 1124.218, 985.301 1123.051 C 992.551 1119.389, 998.460 1114.796, 1010.059 1103.806 C 1023.604 1090.972, 1026.644 1084.469, 1024.383 1073.165 C 1023.695 1069.725, 1016.984 1062.324, 1013.274 1060.914 C 1010.003 1059.671, 999.763 1059.759, 996.341 1061.061 C 994.806 1061.644, 989.870 1065.806, 985.370 1070.311 C 974.379 1081.313, 971.474 1084, 970.571 1084 C 970.152 1084, 968.500 1084.932, 966.900 1086.071 C 961.963 1089.587, 947.688 1096.708, 944 1097.496 C 942.075 1097.908, 938.901 1099.053, 936.946 1100.043 C 934.991 1101.032, 930.491 1102.343, 926.946 1102.956 C 923.401 1103.569, 917.350 1105.058, 913.500 1106.265 C 906.988 1108.306, 904.514 1108.461, 878 1108.480 C 853.421 1108.497, 848.675 1108.253, 843.500 1106.702 C 840.200 1105.714, 833.675 1104.089, 829 1103.091 C 817.662 1100.673, 799.261 1092.927, 788.218 1085.923 C 782.573 1082.344, 770.543 1072.077, 768.974 1069.500 C 768.304 1068.400, 765.984 1065.962, 763.819 1064.081 C 760.185 1060.924, 759.294 1060.637, 752.192 1060.334 C 747.961 1060.154, 743.375 1060.479, 742 1061.058 M 634.336 1325.524 C 627.758 1332.313, 615.687 1348.319, 611.860 1355.327 C 611.507 1355.972, 609.764 1358.975, 607.985 1362 C 606.206 1365.025, 603.948 1369.750, 602.968 1372.500 C 601.988 1375.250, 599.972 1380.650, 598.489 1384.500 C 592.354 1400.424, 589.345 1415.167, 587.416 1438.750 C 585.794 1458.589, 591.515 1497.037, 600.472 1526.500 C 601.810 1530.900, 603.178 1536.631, 603.511 1539.235 C 604.172 1544.388, 606.625 1547, 610.806 1547 C 612.104 1547, 616.657 1547.891, 620.923 1548.980 C 625.189 1550.070, 634.264 1551.577, 641.090 1552.330 C 648.802 1553.182, 655.204 1554.468, 658 1555.729 C 660.659 1556.928, 666.648 1558.183, 672.641 1558.797 C 678.281 1559.375, 684.247 1560.594, 686.084 1561.543 C 687.901 1562.483, 693.820 1563.871, 699.238 1564.628 C 704.657 1565.386, 710.757 1566.829, 712.795 1567.837 C 714.833 1568.844, 721.020 1570.177, 726.545 1570.799 C 732.069 1571.422, 738.594 1572.797, 741.045 1573.855 C 743.899 1575.087, 750.171 1576.200, 758.500 1576.952 C 765.650 1577.598, 775.550 1579.073, 780.500 1580.230 C 789.252 1582.276, 791.775 1582.336, 872 1582.398 C 952.598 1582.460, 954.719 1582.413, 964 1580.336 C 969.225 1579.167, 980.025 1577.660, 988 1576.987 C 996.125 1576.301, 1004.986 1574.945, 1008.155 1573.902 C 1011.265 1572.880, 1019.365 1571.387, 1026.155 1570.585 C 1032.945 1569.784, 1039.850 1568.452, 1041.500 1567.627 C 1043.150 1566.802, 1048.550 1565.580, 1053.500 1564.912 C 1058.450 1564.244, 1064.126 1562.888, 1066.114 1561.898 C 1068.102 1560.908, 1073.789 1559.444, 1078.752 1558.645 C 1083.715 1557.847, 1088.895 1556.460, 1090.263 1555.563 C 1091.631 1554.667, 1097.419 1553.309, 1103.125 1552.546 C 1108.831 1551.783, 1114.892 1550.450, 1116.593 1549.585 C 1118.294 1548.719, 1123.439 1547.355, 1128.026 1546.554 C 1132.733 1545.732, 1136.701 1544.499, 1137.136 1543.722 C 1137.559 1542.966, 1139.727 1541.525, 1141.953 1540.521 C 1144.179 1539.518, 1146 1538.351, 1146 1537.930 C 1146 1537.508, 1147.555 1536.202, 1149.456 1535.027 C 1152.437 1533.185, 1153.251 1531.766, 1155.387 1524.696 C 1163.084 1499.210, 1166.409 1481.403, 1164.009 1478.511 C 1163.320 1477.680, 1162.226 1477, 1161.579 1477 C 1160.932 1477, 1158.569 1475.313, 1156.327 1473.250 C 1154.085 1471.188, 1150.732 1468.477, 1148.875 1467.228 C 1137.340 1459.461, 1133.995 1456.880, 1128.480 1451.493 C 1125.097 1448.189, 1121.846 1444.580, 1121.254 1443.475 C 1119.578 1440.343, 1118.788 1426.259, 1119.842 1418.317 C 1120.531 1413.129, 1121.519 1410.186, 1123.398 1407.723 C 1124.829 1405.846, 1126 1403.869, 1126 1403.329 C 1126 1402.788, 1128.531 1399.047, 1131.624 1395.015 C 1134.717 1390.984, 1137.649 1386.235, 1138.138 1384.463 C 1138.627 1382.690, 1140.371 1379.549, 1142.014 1377.483 C 1143.656 1375.416, 1145 1373.354, 1145 1372.901 C 1145 1372.449, 1145.961 1371.182, 1147.136 1370.088 L 1149.272 1368.098 1146.980 1362.299 C 1145.720 1359.110, 1143.721 1355.150, 1142.539 1353.500 C 1141.357 1351.850, 1139.207 1348.475, 1137.761 1346 C 1136.316 1343.525, 1132.178 1338.168, 1128.566 1334.095 C 1124.955 1330.022, 1122 1326.380, 1122 1326.002 C 1122 1325.623, 1119.755 1323.420, 1117.012 1321.107 L 1112.024 1316.901 1107.329 1319.653 C 1102.738 1322.343, 1102.317 1322.400, 1088.566 1322.161 C 1073.099 1321.893, 1060.335 1323.707, 1054.738 1326.969 C 1052.957 1328.007, 1048.709 1329.355, 1045.297 1329.964 C 1041.885 1330.573, 1037.047 1331.976, 1034.546 1333.083 C 1030.758 1334.758, 1026.446 1335.257, 1008.749 1336.065 C 997.062 1336.598, 981.875 1337.712, 975 1338.539 C 952.206 1341.281, 933.983 1341.970, 884 1341.981 C 832.588 1341.991, 806.699 1340.961, 794.644 1338.425 C 790.126 1337.475, 777.134 1336.627, 758.543 1336.071 C 733.415 1335.318, 728.691 1334.926, 723.500 1333.160 C 720.200 1332.038, 713.900 1330.604, 709.500 1329.973 C 705.100 1329.342, 699.475 1327.913, 697 1326.797 C 693.525 1325.230, 689.084 1324.573, 677.500 1323.913 C 658.162 1322.811, 655.686 1322.359, 652.935 1319.431 C 651.250 1317.637, 649.596 1317, 646.624 1317 C 642.881 1317, 642.011 1317.603, 634.336 1325.524" stroke="none" fill="#ffffff" fill-rule="evenodd"/><path d="M 868.660 30.023 C 867.098 30.492, 849.323 31.153, 829.160 31.494 C 791.436 32.130, 780.334 33.027, 776 35.788 C 774.116 36.988, 769.372 37.563, 756.740 38.122 C 741.985 38.775, 739.354 39.156, 734.740 41.308 C 730.786 43.152, 727.207 43.875, 720.158 44.256 C 712.457 44.671, 710.268 45.165, 707.690 47.071 C 705.133 48.962, 702.763 49.508, 694.695 50.068 C 686.748 50.619, 684.239 51.186, 681.810 52.983 C 679.844 54.436, 676.412 55.512, 671.963 56.071 C 662.541 57.254, 660.414 57.885, 658.419 60.090 C 657.362 61.257, 655.367 62, 653.288 62 C 648.065 62, 641.314 63.996, 639.407 66.103 C 638.330 67.293, 636.349 68.002, 634.095 68.006 C 629.142 68.013, 622.897 69.837, 620.500 71.977 C 619.400 72.958, 616.250 74.085, 613.500 74.480 C 608.036 75.264, 604.924 76.576, 603.727 78.599 C 603.301 79.318, 600.224 80.215, 596.888 80.592 C 592.640 81.073, 589.963 82.002, 587.953 83.693 C 586.250 85.126, 582.974 86.441, 579.891 86.928 C 576.454 87.471, 574.157 88.463, 573.099 89.861 C 572.103 91.177, 569.627 92.322, 566.531 92.898 C 563.636 93.437, 560.884 94.660, 559.939 95.827 C 558.954 97.043, 556.460 98.108, 553.588 98.539 C 550.910 98.941, 547.631 100.281, 546.029 101.629 C 544.473 102.939, 541.692 104.298, 539.850 104.649 C 538.007 105, 534.724 106.573, 532.553 108.144 C 530.382 109.715, 527.907 111.002, 527.053 111.004 C 526.199 111.007, 523.475 112.355, 521 114 C 518.525 115.645, 515.774 116.993, 514.888 116.996 C 514.001 116.998, 511.576 118.350, 509.500 120 C 507.424 121.650, 504.866 123, 503.817 123 C 502.768 123, 500.801 124.108, 499.447 125.462 C 498.093 126.816, 495.143 128.476, 492.892 129.150 C 490.641 129.825, 488.136 131.388, 487.326 132.625 C 486.516 133.862, 484.525 135.165, 482.903 135.521 C 481.280 135.878, 478.695 137.227, 477.159 138.520 C 475.623 139.812, 473.215 141.159, 471.808 141.512 C 470.402 141.865, 468.780 143.187, 468.204 144.451 C 467.491 146.016, 465.938 146.972, 463.329 147.453 C 461.014 147.879, 458.435 149.313, 456.806 151.079 C 455.325 152.686, 453.203 154, 452.091 154 C 450.979 154, 448.591 155.289, 446.785 156.865 C 444.978 158.441, 442.556 160.025, 441.402 160.384 C 440.248 160.744, 438.795 162.155, 438.173 163.519 C 437.501 164.996, 436.206 166, 434.976 166 C 433.839 166, 431.786 167.123, 430.414 168.495 C 429.041 169.868, 426.563 171.692, 424.908 172.548 C 423.252 173.404, 421.655 174.734, 421.360 175.504 C 421.065 176.274, 419.309 177.403, 417.459 178.013 C 415.609 178.624, 413.834 179.947, 413.515 180.954 C 413.195 181.961, 411.631 183.325, 410.039 183.984 C 408.446 184.644, 406.908 185.797, 406.621 186.546 C 406.333 187.296, 404.305 188.824, 402.115 189.941 C 399.924 191.059, 397.512 192.858, 396.755 193.940 C 395.997 195.021, 394.168 196.366, 392.689 196.928 C 391.210 197.490, 390 198.631, 390 199.462 C 390 200.293, 388.425 201.631, 386.500 202.436 C 384.575 203.240, 383 204.566, 383 205.382 C 383 206.198, 381.988 207.172, 380.750 207.547 C 379.512 207.923, 377.350 209.415, 375.945 210.865 C 374.540 212.314, 370.377 215.947, 366.695 218.938 C 363.013 221.930, 360 224.731, 360 225.163 C 360 225.595, 358.682 226.630, 357.071 227.463 C 355.460 228.296, 353.855 229.883, 353.503 230.989 C 353.152 232.095, 352.251 233, 351.501 233 C 350.750 233, 349.194 234.323, 348.042 235.941 C 346.890 237.558, 345.083 239.156, 344.025 239.492 C 342.968 239.828, 341.822 240.984, 341.480 242.062 C 341.138 243.140, 339.540 244.704, 337.929 245.537 C 336.318 246.370, 335 247.726, 335 248.550 C 335 249.375, 333.867 250.480, 332.482 251.007 C 331.097 251.533, 329.557 253.036, 329.059 254.345 C 328.561 255.655, 327.186 256.980, 326.003 257.289 C 324.819 257.598, 323.603 258.803, 323.299 259.966 C 322.995 261.129, 321.453 262.749, 319.873 263.566 C 318.293 264.383, 317 265.570, 317 266.205 C 317 266.839, 315.537 268.794, 313.750 270.549 C 311.962 272.304, 309.950 274.361, 309.278 275.120 C 307.168 277.502, 305.673 279.049, 299.382 285.361 C 296.018 288.738, 292.547 292.908, 291.669 294.629 C 290.792 296.350, 289.361 298.031, 288.490 298.366 C 287.618 298.700, 286.468 300.226, 285.935 301.757 C 285.401 303.288, 283.960 304.982, 282.732 305.521 C 281.504 306.059, 280.353 307.537, 280.173 308.804 C 279.983 310.144, 278.825 311.496, 277.405 312.036 C 276.063 312.546, 274.548 314.059, 274.039 315.396 C 273.531 316.734, 272.212 318.115, 271.108 318.466 C 270.005 318.816, 268.791 320.083, 268.411 321.281 C 268.030 322.479, 266.545 324.618, 265.110 326.033 C 260.440 330.637, 256.737 335.435, 255.395 338.623 C 254.671 340.341, 253.230 341.968, 252.191 342.240 C 251.076 342.531, 250.057 343.963, 249.703 345.737 C 249.328 347.610, 248.335 348.941, 247.063 349.273 C 245.942 349.567, 244.549 351.056, 243.968 352.583 C 243.388 354.111, 241.778 356.495, 240.391 357.882 C 239.004 359.269, 237.625 361.623, 237.327 363.113 C 237.022 364.639, 235.952 366.041, 234.879 366.321 C 233.831 366.595, 232.337 368.323, 231.559 370.160 C 230.781 371.997, 229.234 374.052, 228.122 374.728 C 226.997 375.410, 225.799 377.554, 225.423 379.556 C 224.962 382.018, 223.976 383.509, 222.311 384.268 C 220.840 384.938, 219.645 386.527, 219.295 388.275 C 218.976 389.868, 218.088 391.413, 217.321 391.707 C 215.562 392.382, 213 397.256, 213 399.927 C 213 401.042, 211.909 402.669, 210.575 403.543 C 209.241 404.417, 207.678 406.486, 207.101 408.141 C 206.524 409.796, 204.915 412.500, 203.526 414.152 C 202.137 415.803, 201 417.993, 201 419.020 C 201 420.047, 200.171 421.475, 199.159 422.193 C 196.904 423.793, 195 427.236, 195 429.712 C 195 430.725, 193.719 432.679, 192.153 434.052 C 190.451 435.546, 189.026 438.047, 188.608 440.275 C 188.224 442.324, 186.871 445.038, 185.602 446.307 C 184.333 447.576, 182.965 450.373, 182.562 452.522 C 182.159 454.671, 180.778 457.403, 179.494 458.593 C 178.025 459.955, 176.902 462.471, 176.466 465.379 C 176.011 468.409, 175.278 470, 174.335 470 C 172.851 470, 170 475.658, 170 478.603 C 170 479.520, 168.911 481.280, 167.579 482.514 C 165.979 483.997, 164.914 486.408, 164.437 489.629 C 163.982 492.698, 162.885 495.276, 161.472 496.597 C 160.169 497.814, 158.927 500.541, 158.511 503.097 C 158.100 505.620, 156.746 508.617, 155.339 510.116 C 153.560 512.010, 152.722 514.296, 152.297 518.408 C 151.889 522.369, 151.182 524.367, 149.961 525.021 C 148.063 526.036, 146 530.972, 146 534.496 C 146 535.705, 145.052 537.775, 143.894 539.097 C 141.045 542.348, 140 545.345, 140 550.260 C 140 553.329, 139.342 555.077, 137.442 557.061 C 135.496 559.092, 134.751 561.140, 134.331 565.616 C 133.971 569.450, 132.909 572.855, 131.282 575.391 C 129.580 578.043, 128.624 581.229, 128.281 585.391 C 127.939 589.547, 127.012 592.638, 125.385 595.060 C 123.705 597.559, 122.682 601.090, 121.952 606.909 C 121.258 612.442, 120.227 616.127, 118.850 617.989 C 117.216 620.200, 116.615 623.110, 115.956 632.008 C 115.250 641.555, 114.793 643.592, 112.905 645.601 C 111.018 647.609, 110.559 649.654, 109.843 659.232 C 109.210 667.692, 108.470 671.462, 106.873 674.362 C 105.123 677.539, 104.518 681.347, 103.458 695.862 C 102.743 705.651, 101.428 715.948, 100.501 719 C 97.702 728.225, 96.805 758.812, 97.348 826.500 C 97.847 888.635, 98.358 898.304, 101.339 901.902 C 102.025 902.731, 102.941 910.743, 103.580 921.508 C 104.495 936.941, 104.974 940.229, 106.727 943.106 C 108.271 945.641, 109.034 949.358, 109.744 957.797 C 110.511 966.929, 111.118 969.668, 112.907 972.089 C 114.684 974.492, 115.289 977.174, 115.969 985.672 C 116.655 994.241, 117.246 996.842, 119.072 999.312 C 120.727 1001.549, 121.506 1004.383, 121.995 1009.932 C 122.649 1017.373, 123.995 1021.497, 125.986 1022.163 C 126.540 1022.348, 127.469 1026.285, 128.048 1030.912 C 129.066 1039.025, 130.270 1042.827, 132.229 1044.108 C 132.740 1044.442, 133.535 1047.754, 133.996 1051.466 C 134.622 1056.516, 135.455 1058.882, 137.304 1060.858 C 139.157 1062.840, 139.883 1064.911, 140.211 1069.146 C 140.532 1073.299, 141.315 1075.586, 143.172 1077.793 C 144.857 1079.795, 145.904 1082.546, 146.321 1086.063 C 146.743 1089.625, 147.723 1092.171, 149.344 1093.917 C 151.021 1095.723, 151.923 1098.155, 152.341 1102 C 152.790 1106.124, 153.553 1108.034, 155.391 1109.634 C 157.020 1111.052, 158.076 1113.325, 158.538 1116.403 C 158.992 1119.432, 160.008 1121.648, 161.470 1122.797 C 162.959 1123.969, 163.949 1126.175, 164.433 1129.400 C 164.895 1132.482, 165.993 1135.017, 167.451 1136.371 C 168.770 1137.596, 170.051 1140.322, 170.466 1142.789 C 170.946 1145.633, 171.963 1147.585, 173.488 1148.584 C 175.067 1149.619, 175.994 1151.475, 176.450 1154.517 C 176.884 1157.412, 177.918 1159.577, 179.435 1160.770 C 180.879 1161.906, 182.027 1164.198, 182.472 1166.837 C 182.948 1169.654, 183.970 1171.590, 185.517 1172.603 C 187.019 1173.587, 188.085 1175.541, 188.518 1178.105 C 188.983 1180.862, 190.080 1182.738, 192.095 1184.228 C 193.822 1185.505, 195 1187.299, 195 1188.653 C 195 1189.906, 196.350 1192.468, 198 1194.347 C 199.677 1196.258, 201 1198.903, 201 1200.347 C 201 1201.791, 202.323 1204.437, 204 1206.347 C 205.650 1208.226, 207 1210.479, 207 1211.352 C 207 1212.226, 208.350 1213.938, 210 1215.158 C 211.877 1216.546, 213 1218.270, 213 1219.765 C 213 1221.086, 214.341 1223.495, 216 1225.154 C 217.650 1226.804, 219 1229.016, 219 1230.069 C 219 1231.123, 220.350 1233.187, 222 1234.658 C 223.650 1236.128, 225 1238.201, 225 1239.264 C 225 1240.328, 226.287 1242.400, 227.860 1243.869 C 229.432 1245.338, 231.068 1247.656, 231.495 1249.020 C 231.921 1250.384, 233.559 1252.978, 235.135 1254.785 C 236.711 1256.591, 238 1258.719, 238 1259.512 C 238 1260.305, 239.130 1261.694, 240.512 1262.600 C 241.893 1263.505, 243.302 1265.428, 243.643 1266.873 C 243.984 1268.318, 245.334 1270.940, 246.643 1272.699 C 247.982 1274.498, 249.289 1278, 249.628 1280.699 C 249.960 1283.340, 251.271 1287.075, 252.540 1289 C 254.148 1291.439, 255.148 1295.042, 255.836 1300.884 C 256.496 1306.498, 257.486 1310.167, 258.831 1311.986 C 260.504 1314.248, 261.009 1317.274, 261.856 1330.101 C 262.680 1342.577, 263.308 1346.449, 265.165 1350.500 C 267.446 1355.477, 267.458 1355.740, 267.794 1408 C 268.137 1461.344, 267.484 1477.157, 264.626 1484.719 C 263.583 1487.477, 262.675 1495.169, 262.004 1506.932 C 261.132 1522.204, 260.661 1525.460, 258.891 1528.461 C 257.370 1531.038, 256.521 1535.045, 255.758 1543.248 C 254.935 1552.094, 254.285 1554.973, 252.718 1556.710 C 251.303 1558.280, 250.413 1561.445, 249.647 1567.631 C 248.822 1574.285, 248.056 1576.853, 246.401 1578.508 C 244.855 1580.054, 244.027 1582.513, 243.513 1587.087 C 243.072 1591.011, 242.093 1594.276, 240.992 1595.500 C 238.890 1597.835, 237.014 1604.095, 237.006 1608.798 C 237.002 1611.062, 236.214 1612.786, 234.492 1614.298 C 232.695 1615.876, 231.809 1617.917, 231.363 1621.500 C 230.952 1624.803, 229.909 1627.396, 228.290 1629.138 C 226.789 1630.755, 225.628 1633.466, 225.294 1636.138 C 224.959 1638.815, 223.800 1641.519, 222.294 1643.138 C 220.792 1644.753, 219.626 1647.469, 219.288 1650.138 C 218.915 1653.091, 217.951 1655.148, 216.306 1656.506 C 214.692 1657.838, 213.682 1659.950, 213.301 1662.795 C 212.985 1665.151, 211.959 1667.623, 211.022 1668.289 C 208.705 1669.935, 207 1673.353, 207 1676.351 C 207 1677.852, 206.003 1679.559, 204.477 1680.671 C 202.815 1681.882, 201.734 1683.873, 201.309 1686.504 C 200.902 1689.024, 199.617 1691.480, 197.832 1693.151 C 196.274 1694.609, 195 1696.460, 195 1697.264 C 195 1698.067, 193.650 1700.424, 192 1702.500 C 190.350 1704.576, 189 1707.051, 189 1708 C 189 1708.949, 187.650 1711.424, 186 1713.500 C 184.350 1715.576, 183 1718.257, 183 1719.457 C 183 1720.658, 181.634 1723.170, 179.964 1725.041 C 178.294 1726.911, 176.676 1729.444, 176.368 1730.668 C 176.061 1731.893, 174.707 1733.617, 173.358 1734.501 C 171.130 1735.961, 170.934 1736.669, 171.204 1742.278 C 171.616 1750.856, 171.968 1750.984, 195 1750.915 C 223.164 1750.832, 235.383 1749.832, 238.759 1747.337 C 240.715 1745.890, 244.324 1744.949, 250.897 1744.172 C 256.638 1743.493, 261.264 1742.377, 262.875 1741.283 C 264.524 1740.163, 269.098 1739.090, 275.181 1738.397 C 283.260 1737.476, 285.382 1736.856, 288.008 1734.647 C 290.336 1732.688, 292.264 1732, 295.428 1732 C 300.357 1732, 306.020 1730.335, 307.567 1728.431 C 308.154 1727.708, 311.079 1726.806, 314.067 1726.425 C 319.998 1725.668, 322.222 1724.778, 324.924 1722.076 C 325.898 1721.102, 328.478 1720.019, 330.656 1719.671 C 332.984 1719.299, 335.591 1718, 336.982 1716.519 C 338.819 1714.564, 340.338 1714, 343.770 1714 C 347.860 1714, 354 1711.512, 354 1709.855 C 354 1709.463, 356.512 1708.620, 359.583 1707.983 C 363.233 1707.225, 365.893 1705.988, 367.264 1704.412 C 368.417 1703.085, 370.427 1702, 371.730 1702 C 374.703 1702, 379.583 1699.530, 380.299 1697.662 C 380.597 1696.886, 382.889 1695.944, 385.393 1695.568 C 388.383 1695.120, 390.562 1694.101, 391.745 1692.597 C 392.759 1691.307, 395.221 1689.994, 397.381 1689.588 C 399.491 1689.192, 402.181 1687.832, 403.359 1686.565 C 404.536 1685.298, 406.939 1683.947, 408.698 1683.563 C 410.457 1683.178, 413.557 1681.544, 415.586 1679.932 C 417.615 1678.319, 420.276 1677, 421.500 1677 C 422.724 1677, 425.424 1675.650, 427.500 1674 C 429.576 1672.350, 432.051 1671, 433 1671 C 433.949 1671, 436.424 1669.650, 438.500 1668 C 440.576 1666.350, 442.910 1665, 443.685 1665 C 444.461 1665, 446.096 1663.920, 447.320 1662.600 C 448.543 1661.280, 451.448 1659.687, 453.775 1659.061 C 456.309 1658.378, 458.652 1656.935, 459.618 1655.461 C 460.506 1654.105, 462.199 1653, 463.387 1653 C 464.574 1653, 467.109 1651.720, 469.022 1650.156 C 470.935 1648.593, 473.785 1646.997, 475.356 1646.611 C 476.926 1646.225, 478.425 1645.090, 478.687 1644.088 C 478.965 1643.025, 480.792 1641.780, 483.077 1641.095 C 485.230 1640.450, 488.006 1638.871, 489.246 1637.586 C 490.485 1636.301, 492.708 1634.967, 494.183 1634.622 C 495.659 1634.277, 497.142 1633.128, 497.479 1632.067 C 497.827 1630.971, 499.398 1629.852, 501.120 1629.474 C 502.786 1629.108, 505.578 1627.569, 507.324 1626.055 C 509.071 1624.540, 511.663 1623.018, 513.084 1622.673 C 514.505 1622.328, 517.380 1620.685, 519.472 1619.023 C 521.563 1617.360, 523.898 1616, 524.659 1616 C 525.420 1616, 526.535 1614.921, 527.135 1613.602 C 527.753 1612.248, 529.385 1610.973, 530.888 1610.672 C 532.351 1610.380, 535.287 1608.759, 537.412 1607.070 C 539.537 1605.382, 542.009 1604, 542.906 1604 C 544.447 1604, 552.091 1598.397, 556.535 1594.009 C 557.655 1592.904, 559.086 1592, 559.717 1592 C 560.348 1592, 561.825 1590.650, 563 1589 C 564.175 1587.350, 565.936 1586, 566.913 1586 C 567.890 1586, 569.547 1585.042, 570.595 1583.870 C 571.643 1582.699, 574.372 1580.933, 576.659 1579.945 C 578.946 1578.957, 581.097 1577.269, 581.439 1576.194 C 581.794 1575.075, 583.296 1573.991, 584.949 1573.660 C 586.593 1573.331, 588.105 1572.245, 588.455 1571.140 C 588.794 1570.073, 590.103 1568.940, 591.364 1568.624 C 592.624 1568.307, 594.883 1566.911, 596.382 1565.522 C 597.881 1564.132, 600.453 1562.300, 602.097 1561.450 C 603.741 1560.600, 605.504 1558.804, 606.016 1557.458 L 606.946 1555.013 620.723 1555.555 C 637.395 1556.210, 639.316 1556.490, 644.557 1559.028 C 647.114 1560.265, 652.455 1561.376, 658.715 1561.973 C 665.586 1562.627, 669.838 1563.562, 672.147 1564.924 C 674.551 1566.343, 678.837 1567.230, 686.996 1568 C 694.508 1568.708, 698.721 1569.537, 699.206 1570.403 C 700.204 1572.187, 706.885 1573.771, 716.158 1574.422 C 721.394 1574.789, 724.948 1575.627, 727.396 1577.071 C 730.052 1578.638, 733.829 1579.428, 742.038 1580.134 C 749.607 1580.784, 754.297 1581.708, 756.893 1583.061 C 761.377 1585.398, 766.550 1585.840, 803 1587 C 817.575 1587.464, 831.975 1588.354, 835 1588.978 C 842.222 1590.467, 903.187 1590.520, 916.500 1589.048 C 922 1588.441, 939.550 1587.345, 955.500 1586.615 C 981.106 1585.441, 985.085 1585.035, 989.500 1583.144 C 993.178 1581.569, 998.014 1580.757, 1007.794 1580.074 C 1018.201 1579.347, 1021.837 1578.704, 1024.539 1577.109 C 1027.018 1575.647, 1030.601 1574.894, 1037.246 1574.439 C 1047.769 1573.718, 1053.804 1572.434, 1056.041 1570.442 C 1056.888 1569.687, 1061.388 1568.635, 1066.041 1568.104 C 1075.273 1567.050, 1077.670 1566.406, 1080.109 1564.320 C 1080.995 1563.564, 1085.270 1562.538, 1089.609 1562.041 C 1098.339 1561.041, 1100.696 1560.384, 1103.174 1558.261 C 1104.192 1557.390, 1108.663 1556.500, 1114.570 1555.994 C 1122.037 1555.354, 1124.962 1554.665, 1127.184 1553.022 C 1128.776 1551.845, 1132.612 1550.470, 1135.708 1549.966 C 1139.490 1549.351, 1142.203 1548.221, 1143.971 1546.528 C 1145.718 1544.854, 1148.605 1543.639, 1152.552 1542.916 C 1155.823 1542.317, 1159.850 1541.024, 1161.500 1540.042 C 1163.150 1539.060, 1165.820 1537.945, 1167.433 1537.564 C 1169.046 1537.182, 1171.668 1535.774, 1173.260 1534.435 C 1174.851 1533.096, 1177.356 1531.997, 1178.827 1531.994 C 1183.651 1531.984, 1188.858 1530.022, 1189.510 1527.969 C 1189.959 1526.553, 1191.030 1526, 1193.324 1526 C 1198.141 1526, 1202.727 1524.407, 1206.111 1521.560 C 1207.784 1520.152, 1209.984 1519, 1211 1519 C 1212.016 1519, 1214.186 1517.873, 1215.824 1516.495 C 1217.461 1515.117, 1220.308 1513.708, 1222.150 1513.363 C 1223.993 1513.018, 1226.641 1511.679, 1228.036 1510.386 C 1229.431 1509.093, 1232.049 1507.740, 1233.854 1507.379 C 1235.659 1507.018, 1237.809 1505.695, 1238.632 1504.438 C 1239.600 1502.962, 1241.575 1501.910, 1244.218 1501.463 C 1246.467 1501.083, 1249.250 1499.765, 1250.403 1498.534 C 1251.556 1497.303, 1254.203 1495.739, 1256.285 1495.059 C 1258.367 1494.378, 1260.782 1492.737, 1261.650 1491.411 C 1262.519 1490.085, 1264.101 1489, 1265.165 1489 C 1267.607 1489, 1273 1486.256, 1273 1485.013 C 1273 1484.498, 1274.748 1483.607, 1276.884 1483.031 C 1279.019 1482.456, 1281.376 1481.252, 1282.119 1480.356 C 1282.863 1479.460, 1285.359 1477.918, 1287.665 1476.929 C 1289.972 1475.940, 1292.357 1474.202, 1292.965 1473.066 C 1293.573 1471.930, 1294.888 1471, 1295.887 1471 C 1296.887 1471, 1299.233 1469.895, 1301.102 1468.544 C 1302.971 1467.193, 1305.926 1465.431, 1307.670 1464.628 C 1309.413 1463.826, 1311.341 1462.231, 1311.955 1461.085 C 1312.568 1459.938, 1313.687 1459, 1314.441 1459 C 1315.194 1459, 1317.696 1457.425, 1320 1455.500 C 1322.304 1453.575, 1324.791 1452, 1325.527 1452 C 1326.262 1452, 1327.825 1450.650, 1329 1449 C 1330.175 1447.350, 1331.954 1446, 1332.953 1446 C 1333.952 1446, 1335.452 1444.960, 1336.285 1443.688 C 1337.118 1442.417, 1339.665 1440.818, 1341.945 1440.135 C 1344.777 1439.286, 1346.385 1438.118, 1347.020 1436.446 C 1347.579 1434.977, 1348.749 1434, 1349.950 1434 C 1351.159 1434, 1352.561 1432.816, 1353.500 1431 C 1354.420 1429.222, 1355.846 1428, 1357.003 1428 C 1358.076 1428, 1359.680 1426.893, 1360.566 1425.539 C 1361.453 1424.185, 1363.016 1422.812, 1364.038 1422.488 C 1365.061 1422.163, 1366.178 1421.013, 1366.522 1419.932 C 1366.865 1418.851, 1368.620 1417.350, 1370.421 1416.597 C 1373.443 1415.335, 1376.517 1412.905, 1383 1406.655 C 1384.375 1405.329, 1386.513 1403.724, 1387.750 1403.087 C 1388.987 1402.451, 1390 1401.295, 1390 1400.519 C 1390 1399.744, 1391.237 1398.520, 1392.750 1397.800 C 1394.263 1397.080, 1395.936 1395.499, 1396.470 1394.286 C 1397.003 1393.074, 1398.349 1391.951, 1399.460 1391.791 C 1400.572 1391.631, 1402.073 1390.263, 1402.795 1388.750 C 1403.518 1387.237, 1404.734 1386, 1405.498 1386 C 1406.262 1386, 1407.510 1385.109, 1408.273 1384.021 C 1409.035 1382.933, 1411.234 1380.973, 1413.159 1379.667 C 1416.924 1377.112, 1428.337 1366.752, 1430.923 1363.542 C 1431.790 1362.465, 1436.888 1356.999, 1442.250 1351.396 C 1447.612 1345.793, 1452 1340.535, 1452 1339.713 C 1452 1338.890, 1453.118 1337.936, 1454.485 1337.593 C 1456.005 1337.212, 1457.208 1336.019, 1457.584 1334.521 C 1457.922 1333.174, 1459.092 1331.788, 1460.184 1331.441 C 1461.276 1331.095, 1462.604 1329.566, 1463.135 1328.044 C 1463.665 1326.521, 1465.202 1324.773, 1466.550 1324.159 C 1467.897 1323.545, 1469 1322.389, 1469 1321.590 C 1469 1320.790, 1470.323 1319.194, 1471.941 1318.042 C 1473.558 1316.890, 1475.148 1315.108, 1475.474 1314.082 C 1475.800 1313.056, 1476.946 1311.986, 1478.021 1311.705 C 1479.096 1311.424, 1480.447 1309.954, 1481.023 1308.440 C 1481.599 1306.925, 1483.404 1304.321, 1485.035 1302.653 C 1486.666 1300.985, 1488 1299.041, 1488 1298.333 C 1488 1297.625, 1489.091 1296.331, 1490.425 1295.457 C 1491.759 1294.583, 1493.296 1292.590, 1493.840 1291.028 C 1494.385 1289.467, 1495.768 1287.891, 1496.915 1287.527 C 1498.062 1287.163, 1499 1286.218, 1499 1285.426 C 1499 1284.634, 1500.169 1282.977, 1501.598 1281.743 C 1503.026 1280.510, 1505.004 1277.925, 1505.991 1276 C 1506.979 1274.075, 1508.735 1271.643, 1509.894 1270.595 C 1511.052 1269.547, 1512 1267.707, 1512 1266.506 C 1512 1265.146, 1512.944 1263.891, 1514.500 1263.182 C 1515.875 1262.555, 1517 1261.626, 1517 1261.116 C 1517 1260.606, 1518.575 1258.304, 1520.500 1256 C 1522.425 1253.696, 1524 1250.759, 1524 1249.473 C 1524 1248.018, 1525.132 1246.330, 1527 1245 C 1528.650 1243.825, 1530 1242.298, 1530 1241.606 C 1530 1240.915, 1531.142 1239.275, 1532.539 1237.964 C 1533.935 1236.652, 1535.560 1233.663, 1536.149 1231.322 C 1536.806 1228.713, 1537.929 1226.840, 1539.049 1226.485 C 1540.054 1226.165, 1541.367 1224.417, 1541.967 1222.599 C 1542.567 1220.781, 1544.170 1218.249, 1545.529 1216.973 C 1546.888 1215.696, 1548 1213.804, 1548 1212.769 C 1548 1211.734, 1549.327 1209.675, 1550.949 1208.194 C 1552.931 1206.382, 1554.118 1204.117, 1554.572 1201.278 C 1555.005 1198.568, 1555.864 1196.861, 1556.972 1196.509 C 1558.631 1195.982, 1561 1192.057, 1561 1189.835 C 1561 1189.246, 1562.350 1187.226, 1564 1185.347 C 1565.650 1183.468, 1567 1181.101, 1567 1180.088 C 1567 1179.074, 1567.705 1177.660, 1568.566 1176.945 C 1570.564 1175.287, 1573 1170.600, 1573 1168.414 C 1573 1167.488, 1574.095 1165.714, 1575.434 1164.473 C 1576.773 1163.232, 1578.178 1160.481, 1578.555 1158.359 C 1578.933 1156.236, 1580.309 1153.354, 1581.613 1151.953 C 1582.924 1150.546, 1584.382 1147.276, 1584.874 1144.643 C 1585.364 1142.023, 1586.736 1138.845, 1587.924 1137.581 C 1589.111 1136.317, 1590.558 1133.531, 1591.137 1131.391 C 1591.717 1129.251, 1593.081 1126.537, 1594.167 1125.360 C 1595.335 1124.094, 1596.451 1120.946, 1596.897 1117.661 C 1597.420 1113.805, 1598.317 1111.551, 1599.825 1110.301 C 1601.193 1109.167, 1602.360 1106.552, 1602.975 1103.243 C 1603.512 1100.351, 1604.887 1096.719, 1606.031 1095.172 C 1607.301 1093.454, 1608.535 1089.469, 1609.202 1084.930 C 1609.996 1079.529, 1610.892 1076.940, 1612.484 1075.449 C 1613.858 1074.162, 1614.919 1071.611, 1615.331 1068.600 C 1615.721 1065.754, 1616.966 1062.640, 1618.391 1060.947 C 1620.048 1058.978, 1621.007 1056.246, 1621.484 1052.138 C 1621.986 1047.811, 1622.804 1045.593, 1624.477 1044.022 C 1626.325 1042.285, 1626.916 1040.349, 1627.481 1034.180 C 1628.003 1028.479, 1628.717 1025.924, 1630.252 1024.266 C 1631.867 1022.520, 1632.523 1019.896, 1633.250 1012.266 C 1633.762 1006.895, 1634.477 1002.001, 1634.840 1001.390 C 1635.203 1000.780, 1636.268 999.201, 1637.206 997.882 C 1638.306 996.336, 1639.155 992.466, 1639.595 986.992 C 1640.103 980.677, 1640.907 977.411, 1642.733 974.251 C 1644.774 970.720, 1645.269 968.271, 1645.666 959.751 C 1646.047 951.592, 1646.641 948.473, 1648.581 944.468 C 1650.686 940.120, 1651.104 937.471, 1651.651 924.968 C 1652.112 914.418, 1652.791 909.193, 1654.158 905.672 C 1657.423 897.261, 1657.965 884.182, 1657.960 814 C 1657.954 743.681, 1657.261 724.457, 1654.456 716.860 C 1653.499 714.266, 1652.507 706.886, 1652.009 698.642 C 1651.285 686.662, 1650.822 684.109, 1648.586 679.800 C 1646.447 675.676, 1645.990 673.406, 1645.940 666.658 C 1645.859 655.471, 1644.706 649.380, 1642.155 646.666 C 1640.422 644.820, 1639.991 643.112, 1639.956 637.936 C 1639.897 629.214, 1638.651 623.371, 1636.117 619.944 C 1634.841 618.219, 1633.998 615.575, 1633.994 613.290 C 1633.984 606.653, 1632.090 597.614, 1630.164 595.008 C 1629.139 593.621, 1627.963 590.240, 1627.551 587.493 C 1626.783 582.367, 1625.618 579.475, 1623.447 577.304 C 1622.766 576.624, 1621.890 572.879, 1621.498 568.984 C 1620.970 563.722, 1620.186 561.186, 1618.451 559.124 C 1616.987 557.384, 1615.849 554.346, 1615.403 550.983 C 1614.915 547.303, 1613.970 544.950, 1612.392 543.487 C 1610.619 541.845, 1609.933 539.803, 1609.398 534.579 C 1608.898 529.704, 1608.067 527.044, 1606.436 525.106 C 1605.188 523.623, 1603.849 520.711, 1603.459 518.634 C 1603.069 516.557, 1601.679 513.584, 1600.370 512.028 C 1598.976 510.371, 1597.719 507.232, 1597.339 504.457 C 1596.909 501.322, 1595.725 498.618, 1593.845 496.476 C 1592.280 494.694, 1591 492.074, 1591 490.653 C 1591 489.209, 1589.677 486.563, 1588 484.653 C 1585.725 482.062, 1585 480.259, 1585 477.195 C 1585 474.372, 1584.266 472.281, 1582.565 470.260 C 1581.226 468.668, 1579.384 465.501, 1578.472 463.221 C 1577.559 460.941, 1576.012 458.821, 1575.034 458.511 C 1573.776 458.111, 1573.099 456.571, 1572.726 453.257 C 1572.335 449.793, 1571.518 448.028, 1569.599 446.497 C 1568.169 445.357, 1567 443.632, 1567 442.663 C 1567 440.213, 1564.360 435.352, 1562.678 434.707 C 1561.911 434.412, 1560.984 432.302, 1560.619 430.017 C 1560.224 427.552, 1558.975 424.955, 1557.546 423.630 C 1556.222 422.403, 1554.824 420.072, 1554.440 418.449 C 1554.056 416.827, 1552.687 414.362, 1551.396 412.972 C 1550.106 411.581, 1548.552 409.012, 1547.942 407.262 C 1547.332 405.513, 1546.002 403.818, 1544.986 403.496 C 1543.970 403.173, 1542.845 401.569, 1542.485 399.931 C 1542.125 398.292, 1540.756 395.675, 1539.443 394.115 C 1538.130 392.555, 1536.588 390.047, 1536.016 388.542 C 1535.444 387.038, 1534.076 385.571, 1532.977 385.284 C 1531.871 384.994, 1530.701 383.586, 1530.358 382.131 C 1530.017 380.684, 1528.672 378.068, 1527.370 376.318 C 1526.068 374.568, 1524.561 371.975, 1524.021 370.556 C 1523.482 369.137, 1521.906 367.459, 1520.520 366.827 C 1518.962 366.117, 1518 364.857, 1518 363.525 C 1518 362.340, 1515.362 358.237, 1512.138 354.406 C 1508.913 350.576, 1505.979 346.511, 1505.618 345.373 C 1505.257 344.235, 1503.845 342.795, 1502.481 342.173 C 1501.089 341.539, 1500 340.197, 1500 339.116 C 1500 337.290, 1495.925 331.473, 1490.823 326.015 C 1489.545 324.648, 1487.719 322.286, 1486.765 320.765 C 1485.810 319.244, 1484.397 318, 1483.623 318 C 1482.850 318, 1481.931 316.860, 1481.581 315.466 C 1481.231 314.072, 1479.867 312.441, 1478.549 311.841 C 1477.232 311.240, 1475.900 309.736, 1475.589 308.497 C 1475.278 307.259, 1473.893 305.505, 1472.512 304.600 C 1471.130 303.694, 1470 302.341, 1470 301.592 C 1470 300.843, 1468.884 299.499, 1467.521 298.606 C 1466.157 297.712, 1464.290 295.529, 1463.372 293.753 C 1462.454 291.978, 1460.532 289.326, 1459.101 287.862 C 1457.671 286.397, 1456.050 284.725, 1455.500 284.146 C 1454.950 283.567, 1452.452 281.160, 1449.950 278.797 C 1447.447 276.434, 1445.098 273.709, 1444.728 272.741 C 1444.358 271.774, 1442.927 270.468, 1441.547 269.840 C 1440.167 269.211, 1438.766 267.837, 1438.432 266.787 C 1438.099 265.737, 1436.749 264.387, 1435.432 263.787 C 1434.116 263.187, 1432.766 261.837, 1432.432 260.787 C 1432.099 259.737, 1430.827 258.423, 1429.605 257.866 C 1428.383 257.309, 1426.886 255.537, 1426.278 253.927 C 1425.522 251.924, 1424.486 251, 1422.993 251 C 1421.639 251, 1420.610 250.227, 1420.279 248.960 C 1419.986 247.838, 1418.485 246.268, 1416.944 245.471 C 1415.403 244.674, 1413.855 243.117, 1413.503 242.011 C 1413.152 240.905, 1412.476 240, 1412 240 C 1411.524 240, 1408.250 237.188, 1404.725 233.750 C 1401.200 230.313, 1396.153 225.700, 1393.510 223.500 C 1390.867 221.300, 1386.148 216.912, 1383.023 213.750 C 1379.536 210.222, 1376.493 208, 1375.146 208 C 1373.731 208, 1372.616 207.121, 1372.011 205.528 C 1371.490 204.160, 1369.955 202.776, 1368.571 202.429 C 1367.196 202.083, 1365.811 200.979, 1365.491 199.973 C 1365.172 198.968, 1363.356 197.228, 1361.456 196.106 C 1359.555 194.985, 1358 193.671, 1358 193.186 C 1358 192.701, 1356.210 191.497, 1354.022 190.510 C 1351.834 189.523, 1349.349 187.655, 1348.499 186.358 C 1347.583 184.961, 1345.972 184, 1344.544 184 C 1343.009 184, 1341.903 183.271, 1341.497 181.989 C 1341.145 180.883, 1339.564 179.309, 1337.983 178.491 C 1336.402 177.673, 1333.952 175.933, 1332.540 174.624 C 1331.127 173.315, 1328.713 171.993, 1327.175 171.685 C 1325.474 171.345, 1323.921 170.121, 1323.211 168.563 C 1322.552 167.117, 1321.212 166, 1320.136 166 C 1319.088 166, 1317.505 164.894, 1316.619 163.541 C 1315.732 162.187, 1313.216 160.546, 1311.018 159.887 C 1308.824 159.230, 1306.336 157.636, 1305.491 156.346 C 1304.646 155.056, 1303.305 154, 1302.512 154 C 1301.719 154, 1299.531 152.649, 1297.651 150.998 C 1295.770 149.347, 1292.881 147.726, 1291.230 147.396 C 1289.397 147.029, 1287.802 145.862, 1287.135 144.398 C 1286.535 143.079, 1285.195 142, 1284.159 142 C 1283.123 142, 1280.537 140.618, 1278.412 138.930 C 1276.287 137.241, 1273.240 135.598, 1271.641 135.278 C 1270.042 134.958, 1268.530 133.920, 1268.282 132.970 C 1267.769 131.007, 1263.956 129, 1260.741 129 C 1259.550 129, 1257.658 127.852, 1256.538 126.448 C 1255.324 124.928, 1252.803 123.516, 1250.302 122.955 C 1247.993 122.437, 1244.976 120.885, 1243.598 119.507 C 1242.219 118.128, 1240.232 117, 1239.183 117 C 1238.134 117, 1235.576 115.650, 1233.500 114 C 1231.424 112.350, 1228.956 111, 1228.016 111 C 1227.075 111, 1225.225 110.052, 1223.903 108.894 C 1220.932 106.291, 1218.803 105.464, 1212.800 104.583 C 1209.505 104.099, 1207.926 103.343, 1207.517 102.054 C 1206.896 100.096, 1204.202 99.036, 1199.790 99.014 C 1198.169 99.005, 1196.111 97.954, 1194.665 96.394 C 1193.100 94.706, 1190.531 93.468, 1187.374 92.879 C 1184.693 92.379, 1182.347 91.517, 1182.160 90.964 C 1181.690 89.575, 1176.511 87, 1174.187 87 C 1173.135 87, 1170.643 85.703, 1168.648 84.118 C 1165.856 81.898, 1163.524 81.075, 1158.516 80.539 C 1154.406 80.098, 1151.707 79.298, 1151.184 78.365 C 1150.121 76.466, 1143.487 74.100, 1139.064 74.044 C 1137.008 74.018, 1134.739 73.164, 1133.411 71.916 C 1131.066 69.713, 1125.554 68.064, 1120.405 68.024 C 1118.661 68.010, 1116.561 67.172, 1115.593 66.103 C 1113.709 64.021, 1106.950 62, 1101.872 62 C 1099.962 62, 1097.717 61.144, 1096.411 59.916 C 1093.950 57.605, 1088.501 56.060, 1082.678 56.024 C 1080.389 56.010, 1077.053 54.943, 1074.360 53.365 C 1070.654 51.193, 1068.086 50.607, 1059.737 50.028 C 1053.436 49.591, 1049.461 48.882, 1049.217 48.151 C 1048.429 45.788, 1044.486 44.772, 1033.118 44.002 C 1024.668 43.430, 1020.210 42.630, 1016.770 41.070 C 1013.050 39.382, 1008.932 38.740, 997.498 38.066 C 989.500 37.594, 982.403 36.758, 981.728 36.208 C 978.525 33.600, 970.732 32.809, 940 31.976 C 922.125 31.491, 905.928 30.623, 904.007 30.047 C 899.884 28.811, 872.764 28.793, 868.660 30.023 M 863.509 204.682 C 849.327 208.650, 834.910 218.157, 826.967 228.778 C 812.648 247.925, 810.069 272.817, 820.129 294.781 C 826.512 308.719, 840.769 321.660, 855.116 326.540 C 861.550 328.728, 862.368 328.805, 864.480 327.421 C 867.801 325.245, 879.846 325.359, 884.593 327.611 C 889.552 329.964, 893.219 329.769, 901.309 326.719 C 912.953 322.329, 926.026 310.373, 935.175 295.747 C 939.982 288.063, 942.458 265.970, 939.980 252.886 C 938.973 247.573, 938.245 245.843, 932.452 235 C 928.989 228.518, 914.397 213.935, 908.516 211.079 C 896.256 205.125, 894.088 204.623, 879.500 204.369 C 871.800 204.235, 864.604 204.376, 863.509 204.682 M 874 337.883 L 868.500 340.723 868.213 370.112 C 867.905 401.681, 868.408 406.207, 872.568 409.291 C 874.614 410.807, 875.597 410.916, 878.987 410.004 C 882.249 409.125, 883.360 408.158, 884.995 404.775 C 886.859 400.916, 887 398.604, 887 371.874 L 887 343.123 884 339.839 C 882.350 338.032, 881 336.205, 881 335.777 C 881 334.523, 879.820 334.878, 874 337.883 M 881 418.143 C 878.525 418.651, 874.632 418.806, 872.349 418.487 C 870.066 418.168, 865.341 418.382, 861.849 418.961 C 858.357 419.541, 837.493 420.133, 815.484 420.276 L 775.467 420.537 769.942 423.240 C 761.730 427.258, 755.618 433.600, 752.976 440.845 C 751.762 444.175, 749.917 447.670, 748.876 448.612 C 747.123 450.199, 747.103 450.457, 748.610 452.122 C 750.777 454.516, 751.475 461.523, 750.068 466.748 C 748.754 471.628, 743.374 476, 738.683 476 C 737.114 476, 731.481 474.176, 726.165 471.946 C 717.334 468.242, 715.378 467.814, 703.500 466.981 C 696.350 466.480, 685.757 466.055, 679.960 466.035 C 673.326 466.013, 667.212 465.387, 663.460 464.346 C 660.182 463.436, 656.600 462.713, 655.500 462.741 C 652.146 462.824, 628.735 467.978, 627.581 468.887 C 626.986 469.356, 624.700 470.053, 622.500 470.437 C 620.300 470.821, 614.675 472.408, 610 473.963 C 605.325 475.518, 597.225 477.986, 592 479.447 C 586.775 480.907, 578.675 483.843, 574 485.970 C 569.325 488.098, 563.587 490.396, 561.250 491.078 C 558.913 491.759, 557 492.464, 557 492.645 C 557 494.229, 565.410 500.101, 569 501.024 C 571.475 501.660, 576.463 503.030, 580.084 504.068 C 583.705 505.107, 591.355 506.618, 597.084 507.427 C 602.813 508.235, 610.200 509.565, 613.500 510.381 C 620.814 512.190, 632.386 512.808, 672 513.506 C 706.234 514.109, 714.359 514.562, 728 516.627 C 744.836 519.176, 792.845 519.774, 918.500 518.998 C 1036.180 518.272, 1042.084 518.149, 1055 516.150 C 1066.474 514.375, 1073.604 514.035, 1102.500 513.884 C 1146.580 513.654, 1164.237 512.701, 1172.840 510.088 C 1176.503 508.975, 1182.875 507.357, 1187 506.492 C 1191.125 505.628, 1197.342 503.515, 1200.816 501.797 L 1207.131 498.675 1204.316 497.474 C 1202.767 496.814, 1200.660 495.330, 1199.632 494.178 C 1198.605 493.026, 1195.455 491.327, 1192.632 490.404 C 1189.810 489.481, 1185.925 487.939, 1184 486.978 C 1178.292 484.128, 1141.914 472.272, 1136.559 471.517 C 1133.841 471.134, 1129.341 469.920, 1126.559 468.821 C 1123.776 467.721, 1117.814 466.176, 1113.309 465.387 C 1108.805 464.599, 1103.180 463.233, 1100.809 462.353 C 1098.137 461.361, 1092.131 460.599, 1085 460.347 C 1071.272 459.862, 1070.640 459.776, 1068.651 458.125 C 1067.797 457.417, 1064.216 456.344, 1060.692 455.740 C 1055.371 454.829, 1053.121 454.930, 1047.426 456.335 C 1043.654 457.266, 1038.939 459.156, 1036.947 460.537 C 1031.967 463.988, 1027.830 465, 1018.707 465 C 1009.765 465, 1006.814 463.830, 1002.037 458.389 C 998.598 454.472, 998.482 453.162, 1000.605 442.186 C 1001.672 436.667, 998.736 431.834, 991.127 426.588 C 982.278 420.486, 978.608 420.070, 933.409 420.031 C 904.376 420.006, 896.358 419.709, 892.409 418.511 C 886.942 416.852, 887.239 416.862, 881 418.143 M 726.265 456.657 C 725.316 457.041, 725.379 457.833, 726.541 460.078 C 727.819 462.551, 728.652 463, 731.958 463 C 735.115 463, 736.255 462.451, 737.902 460.137 C 739.024 458.563, 739.654 456.988, 739.304 456.637 C 738.566 455.900, 728.099 455.916, 726.265 456.657 M 541.574 504.683 C 539.965 504.949, 537.222 506.254, 535.480 507.583 C 533.737 508.913, 531.537 510, 530.590 510 C 528.476 510, 525.285 511.657, 522.624 514.135 C 521.524 515.161, 519.870 516, 518.949 516 C 518.028 516, 515.591 517.339, 513.532 518.974 C 511.474 520.610, 508.316 522.225, 506.515 522.563 C 504.385 522.963, 502.856 524.021, 502.142 525.589 C 501.537 526.915, 500.362 528, 499.529 528 C 498.697 528, 496.872 529.283, 495.475 530.852 C 494.077 532.420, 491.149 534.238, 488.967 534.892 C 486.665 535.582, 485 536.702, 485 537.562 C 485 538.376, 483.762 539.594, 482.250 540.268 C 480.738 540.941, 476.937 544.081, 473.805 547.246 C 470.673 550.411, 467.708 553, 467.216 553 C 466.724 553, 465.808 554.125, 465.182 555.500 C 464.555 556.875, 463.574 558, 463.001 558 C 461.380 558, 442.353 577.313, 441.583 579.739 C 441.206 580.926, 440.016 582.178, 438.938 582.520 C 437.860 582.862, 436.326 584.403, 435.529 585.944 C 434.732 587.485, 433.162 588.986, 432.040 589.279 C 430.820 589.598, 430 590.640, 430 591.872 C 430 593.004, 428.711 595.409, 427.135 597.215 C 425.559 599.022, 423.967 601.472, 423.596 602.661 C 423.225 603.849, 421.815 605.547, 420.461 606.434 C 419.107 607.320, 418 608.676, 418 609.446 C 418 610.216, 416.899 612.155, 415.553 613.754 C 414.208 615.354, 412.445 618.582, 411.637 620.928 C 410.828 623.275, 409.281 625.815, 408.199 626.573 C 407.117 627.331, 405.917 629.629, 405.532 631.681 C 405.147 633.732, 403.745 636.703, 402.416 638.282 C 399.283 642.006, 399.281 645.352, 402.413 646.779 C 403.741 647.383, 405.086 648.697, 405.404 649.698 C 405.722 650.699, 406.998 651.964, 408.241 652.509 C 409.483 653.054, 410.932 654.483, 411.459 655.685 C 411.986 656.886, 413.449 658.339, 414.709 658.913 C 415.969 659.487, 417 660.627, 417 661.445 C 417 662.264, 418.559 664.492, 420.463 666.397 C 422.368 668.302, 424.213 671, 424.563 672.394 C 424.913 673.788, 426.006 675.184, 426.992 675.497 C 427.978 675.810, 429.332 677.387, 430 679 C 430.668 680.613, 432.029 682.192, 433.024 682.508 C 434.019 682.823, 435.297 684.413, 435.864 686.041 C 436.432 687.668, 437.579 689, 438.413 689 C 439.247 689, 440.451 690.013, 441.087 691.250 C 442.467 693.932, 444.357 696.025, 454.671 706.294 C 466.285 717.856, 467.613 719, 469.434 719 C 471.663 719, 477 721.813, 477 722.987 C 477 723.502, 478.800 724.408, 481 725 C 483.351 725.633, 485 726.680, 485 727.539 C 485 729.368, 484.821 729.388, 489.764 727 C 492.041 725.900, 494.815 725, 495.929 725 C 497.043 725, 498.689 723.878, 499.587 722.507 C 500.505 721.106, 502.995 719.483, 505.271 718.801 C 507.499 718.133, 510.354 716.555, 511.616 715.293 C 512.877 714.032, 514.524 713, 515.276 713 C 516.028 713, 518.411 711.663, 520.572 710.028 C 522.732 708.393, 525.451 707.043, 526.612 707.028 C 527.774 707.013, 530.349 705.710, 532.333 704.132 C 534.318 702.555, 537.687 700.986, 539.820 700.645 C 541.954 700.304, 544.880 699.096, 546.322 697.961 C 547.766 696.825, 551.696 695.455, 555.062 694.913 C 558.427 694.371, 562.421 693.009, 563.939 691.887 C 565.867 690.462, 569.784 689.443, 576.925 688.510 C 583.453 687.657, 587.809 686.577, 588.972 685.525 C 590.924 683.759, 600.349 682.061, 608.500 682.007 C 611.250 681.989, 616.425 681.043, 620 679.905 C 624.646 678.426, 631.065 677.586, 642.500 676.961 C 665.273 675.716, 1102.187 675.782, 1124 677.033 C 1136.111 677.729, 1143.194 678.608, 1147 679.889 C 1150.067 680.922, 1157.144 682.026, 1163 682.386 C 1171.118 682.884, 1174.634 683.577, 1178.500 685.440 C 1181.599 686.934, 1186.921 688.257, 1192.499 688.921 C 1198.669 689.655, 1202.357 690.628, 1204.231 692.013 C 1205.734 693.124, 1209.092 694.325, 1211.692 694.681 C 1214.623 695.083, 1217.284 696.193, 1218.692 697.601 C 1220.050 698.959, 1222.827 700.151, 1225.603 700.568 C 1228.558 701.011, 1230.960 702.089, 1232.221 703.539 C 1233.309 704.791, 1235.834 706.121, 1237.831 706.496 C 1242.448 707.362, 1245 708.726, 1245 710.328 C 1245 711.019, 1247.011 712.123, 1249.469 712.780 C 1252.267 713.529, 1254.553 714.915, 1255.584 716.488 C 1256.549 717.960, 1258.178 719, 1259.520 719 C 1261.656 719, 1267.147 722.739, 1273 728.177 C 1274.375 729.455, 1276.744 731.044, 1278.265 731.708 C 1279.786 732.373, 1281.297 733.610, 1281.622 734.458 C 1281.995 735.428, 1283.473 736, 1285.607 736 C 1288.313 736, 1289 735.602, 1289 734.035 C 1289 732.955, 1290.013 731.536, 1291.250 730.883 C 1292.487 730.230, 1294.491 728.639, 1295.702 727.348 C 1296.913 726.057, 1298.764 725, 1299.815 725 C 1300.865 725, 1303.424 723.650, 1305.500 722 C 1308.223 719.836, 1310.351 719, 1313.138 719 C 1315.616 719, 1317.690 718.310, 1318.924 717.076 C 1321.762 714.238, 1324.492 713, 1327.911 713 C 1330.017 713, 1331.437 712.263, 1332.522 710.607 C 1333.478 709.147, 1335.776 707.790, 1338.418 707.125 C 1341.150 706.437, 1343.356 705.106, 1344.397 703.517 C 1345.304 702.133, 1346.693 701, 1347.485 701 C 1348.320 701, 1349.381 699.300, 1350.014 696.947 C 1350.614 694.718, 1352.040 691.960, 1353.183 690.817 C 1354.976 689.024, 1356.453 682.341, 1356.956 673.750 C 1356.980 673.338, 1357.996 672.004, 1359.213 670.787 C 1361.096 668.904, 1361.485 667.221, 1361.823 659.495 C 1362.196 650.979, 1362.065 650.231, 1359.724 647.448 C 1358.350 645.816, 1356.784 642.876, 1356.242 640.915 C 1355.700 638.953, 1354.074 636.165, 1352.629 634.720 C 1351.183 633.274, 1350 631.012, 1350 629.694 C 1350 628.375, 1348.650 625.884, 1347 624.157 C 1345.350 622.431, 1344 620.085, 1344 618.943 C 1344 616.070, 1342.209 613, 1340.532 613 C 1339.764 613, 1338.828 611.987, 1338.453 610.750 C 1338.077 609.513, 1336.585 607.311, 1335.135 605.859 C 1328.760 599.469, 1326.946 597.142, 1325.832 593.926 C 1325.180 592.042, 1323.488 589.317, 1322.073 587.872 C 1320.658 586.426, 1318.950 584.626, 1318.278 583.872 C 1316.552 581.935, 1315.480 580.833, 1309.824 575.176 C 1307.074 572.426, 1304.301 569.631, 1303.662 568.964 C 1291.108 555.864, 1281.920 547.109, 1280.128 546.541 C 1278.890 546.148, 1277.383 544.741, 1276.779 543.413 C 1276.174 542.086, 1274.862 541, 1273.863 541 C 1272.864 541, 1271.320 539.893, 1270.434 538.539 C 1269.547 537.185, 1268.035 535.829, 1267.075 535.524 C 1266.115 535.219, 1263.568 533.402, 1261.415 531.486 C 1259.262 529.569, 1256.703 528.001, 1255.729 528.001 C 1254.754 528, 1253.445 526.875, 1252.818 525.500 C 1252.183 524.107, 1250.836 523, 1249.774 523 C 1247.235 523, 1243.991 521.219, 1241.298 518.348 C 1240.087 517.057, 1238.209 516, 1237.124 516 C 1236.040 516, 1233.759 514.827, 1232.054 513.392 C 1227.606 509.649, 1216.396 508.422, 1201.077 510.001 C 1192.134 510.923, 1188.599 511.737, 1185.406 513.608 C 1181.728 515.763, 1179.728 516.085, 1166.891 516.585 C 1157.082 516.968, 1150.431 517.756, 1146 519.060 C 1140.065 520.808, 1131.155 521.170, 1043.500 523.217 C 990.700 524.451, 938.050 525.273, 926.500 525.044 C 884.329 524.210, 855.430 524.507, 841 525.923 C 820.848 527.902, 790.594 527.786, 775 525.672 C 767.393 524.640, 749.192 523.589, 728.500 522.986 C 688.318 521.815, 655.006 520.229, 642.500 518.892 C 637.550 518.362, 624.692 517.326, 613.926 516.589 C 598.132 515.508, 593.420 514.837, 589.529 513.116 C 586.325 511.699, 580.990 510.657, 573.625 510.011 C 564.705 509.228, 561.953 508.602, 559.521 506.802 C 556.444 504.525, 548.328 503.567, 541.574 504.683 M 1754.462 618.250 C 1754.201 618.938, 1754.103 732.900, 1754.244 871.500 L 1754.500 1123.500 1943 1123.500 L 2131.500 1123.500 2131.758 1068.250 L 2132.017 1013 2002.008 1013 L 1872 1013 1872 815 L 1872 617 1813.469 617 C 1767.563 617, 1754.835 617.270, 1754.462 618.250 M 2184 779.894 C 2184 948.154, 2184.133 954.319, 2188.162 973 C 2199.691 1026.447, 2239.213 1073.510, 2295.199 1100.462 C 2330.971 1117.684, 2369.247 1125.129, 2414.500 1123.670 C 2468.181 1121.938, 2513.700 1107.046, 2550.500 1079.173 C 2590.276 1049.048, 2613.392 1014.151, 2623.233 969.373 L 2625.402 959.500 2625.726 788.250 L 2626.050 617 2567.025 617 L 2508 617 2508 768.122 C 2508 934.133, 2508.125 930.379, 2501.973 948.579 C 2494.427 970.903, 2478.438 987.122, 2454.286 996.950 C 2421.519 1010.285, 2376.707 1008.504, 2346.695 992.673 C 2319.510 978.334, 2306.040 956.368, 2303.050 921.500 C 2302.404 913.975, 2302.017 854.966, 2302.010 763.250 L 2302 617 2243 617 L 2184 617 2184 779.894 M 2691.034 617.743 C 2691.053 618.159, 2730.822 672.882, 2779.409 739.348 L 2867.751 860.197 2771.477 991.534 C 2718.527 1063.769, 2675.458 1123.124, 2675.768 1123.435 C 2676.079 1123.746, 2707.653 1124, 2745.933 1124 L 2815.533 1124 2876.503 1040.500 C 2910.037 994.575, 2937.704 957.013, 2937.987 957.029 C 2938.269 957.045, 2965.931 994.620, 2999.459 1040.529 L 3060.417 1124 3127.709 1124 L 3195 1124 3195 1119.600 C 3195 1115.356, 3192.833 1112.246, 3134.214 1032.350 C 3100.782 986.782, 3058.697 929.395, 3040.692 904.823 L 3007.956 860.146 3018.826 845.323 C 3062.516 785.743, 3185 617.753, 3185 617.411 C 3185 617.177, 3153.640 617.102, 3115.311 617.243 L 3045.621 617.500 2992.773 689.500 C 2963.706 729.100, 2939.379 762.020, 2938.712 762.656 C 2937.776 763.549, 2925.289 747.141, 2883.917 690.656 L 2830.334 617.500 2760.667 617.243 C 2722.350 617.102, 2691.015 617.327, 2691.034 617.743 M 386.202 657.250 C 385.061 660.138, 382.242 666.775, 379.939 672 C 371.414 691.335, 360.315 725.837, 355.006 749.500 C 354.019 753.900, 352.303 761.550, 351.194 766.500 C 348.289 779.460, 345.230 797.877, 343.968 810 C 338.063 866.751, 337.638 874.053, 337.565 920 C 337.509 955.635, 337.741 962.560, 339.202 969 C 340.138 973.125, 342.019 983.025, 343.382 991 C 344.744 998.975, 347.031 1009.465, 348.463 1014.311 C 351.884 1025.883, 362.841 1055.087, 364.480 1057 C 365.187 1057.825, 368.505 1064.037, 371.854 1070.805 C 375.202 1077.573, 378.939 1084.510, 380.157 1086.221 C 381.375 1087.932, 383.301 1091, 384.436 1093.039 C 390.624 1104.154, 405.150 1123.131, 416.938 1135.500 C 420.607 1139.350, 424.916 1144.240, 426.512 1146.367 C 428.109 1148.494, 430.861 1151.194, 432.627 1152.367 C 434.392 1153.540, 441.285 1159, 447.944 1164.500 C 454.603 1170, 461.502 1175.487, 463.276 1176.694 C 465.049 1177.900, 467.810 1179.925, 469.411 1181.194 C 473.860 1184.719, 497.394 1198.429, 507.500 1203.383 C 525.633 1212.272, 539.008 1217.461, 553 1221.034 C 558.775 1222.508, 568.687 1225.118, 575.027 1226.833 C 586.013 1229.806, 591.030 1230.471, 622 1233.061 C 630.424 1233.766, 717.494 1233.989, 889 1233.746 C 1121.279 1233.416, 1144.578 1233.237, 1155.845 1231.692 C 1162.635 1230.762, 1168.485 1229.819, 1168.845 1229.598 C 1169.205 1229.376, 1175.350 1228.009, 1182.500 1226.559 C 1209.493 1221.086, 1250.868 1204.211, 1271.875 1190.108 C 1274.831 1188.124, 1279.277 1185.315, 1281.756 1183.867 C 1288.263 1180.067, 1299.762 1171.987, 1303.626 1168.500 C 1305.454 1166.850, 1309.494 1163.475, 1312.602 1161 C 1321.880 1153.612, 1328.970 1146.893, 1334.901 1139.868 C 1337.980 1136.220, 1344.377 1128.782, 1349.116 1123.337 C 1353.855 1117.893, 1359.883 1110.078, 1362.512 1105.969 C 1365.142 1101.861, 1368.742 1096.700, 1370.512 1094.500 C 1372.283 1092.300, 1375.124 1087.575, 1376.826 1084 C 1378.528 1080.425, 1382.631 1072.775, 1385.944 1067 C 1389.256 1061.225, 1391.975 1056.050, 1391.984 1055.500 C 1391.994 1054.950, 1393.380 1051.587, 1395.064 1048.027 C 1398.702 1040.337, 1406.093 1018.733, 1408.929 1007.500 C 1410.040 1003.100, 1412.320 991.400, 1413.997 981.500 C 1415.673 971.600, 1417.283 962.840, 1417.574 962.034 C 1417.865 961.228, 1418.089 943.267, 1418.071 922.121 C 1418.039 884.740, 1416.893 857.170, 1414.989 848 C 1414.476 845.525, 1413.572 836.300, 1412.981 827.500 C 1412.391 818.700, 1411.491 808.800, 1410.981 805.500 C 1410.472 802.200, 1409.124 793.650, 1407.986 786.500 C 1403.972 761.276, 1395.509 726.398, 1388.938 708 C 1387.269 703.325, 1384.881 696.350, 1383.632 692.500 C 1382.383 688.650, 1379.593 681.306, 1377.431 676.180 C 1373.556 666.993, 1373.458 666.868, 1370.531 667.449 C 1366.495 668.249, 1366.321 668.508, 1364.099 677.026 C 1360.522 690.739, 1354.841 702.160, 1348.856 707.669 C 1345.602 710.665, 1325.850 720.695, 1319.618 722.516 C 1316.803 723.339, 1313.150 724.906, 1311.500 725.999 C 1309.850 727.092, 1307.816 727.990, 1306.980 727.993 C 1305.003 728.002, 1294.775 735.700, 1291.971 739.291 C 1290.008 741.803, 1289.920 742.401, 1291.085 745.291 C 1291.796 747.056, 1294.694 751.200, 1297.524 754.500 C 1300.355 757.800, 1304.380 763.200, 1306.470 766.500 C 1308.560 769.800, 1311.025 773.625, 1311.949 775 C 1315.076 779.654, 1320.843 792.455, 1323.887 801.500 C 1329.121 817.052, 1330.321 826.871, 1329.627 848.500 C 1328.826 873.474, 1325.709 887.400, 1317.337 903.409 C 1308.022 921.221, 1299.098 931.633, 1282.638 943.897 C 1264.558 957.368, 1240.013 967.537, 1212.500 972.956 C 1206.450 974.148, 1199.625 975.525, 1197.333 976.016 C 1195.042 976.507, 1180.288 977.604, 1164.548 978.454 C 1140.192 979.770, 1097.845 980, 880.215 980.003 C 717.650 980.005, 618.672 979.635, 608.500 978.987 C 575.016 976.855, 565.184 975.947, 560.418 974.551 C 557.713 973.759, 551.235 972.379, 546.022 971.485 C 540.809 970.591, 534.509 969.013, 532.022 967.978 C 529.535 966.943, 525.475 965.585, 523 964.960 C 517.586 963.594, 497.470 953.894, 490.500 949.290 C 478.427 941.313, 474.354 937.995, 466.825 930 C 462.422 925.325, 458.122 920.150, 457.269 918.500 C 456.416 916.850, 454.657 914.228, 453.359 912.673 C 452.062 911.119, 451 909.267, 451 908.558 C 451 907.850, 450.053 906.066, 448.896 904.595 C 447.739 903.125, 445.973 899.213, 444.970 895.902 C 443.968 892.592, 442.651 889.285, 442.044 888.553 C 441.009 887.306, 439.168 879.151, 435.371 859 C 433.214 847.551, 433.928 827.683, 436.754 820.500 C 437.836 817.750, 439.035 813.025, 439.419 810 C 439.802 806.975, 441.214 802.165, 442.558 799.312 C 443.901 796.458, 445 793.504, 445 792.746 C 445 791.273, 450.711 779.723, 455.504 771.500 C 460.180 763.479, 467.629 754.139, 476.754 744.854 L 485.251 736.208 482.436 732.680 C 480.531 730.292, 478.470 728.940, 476.060 728.497 C 474.102 728.138, 471.375 726.825, 470 725.581 C 468.625 724.337, 465.925 722.722, 464 721.993 C 460.794 720.779, 447.008 709.690, 446.120 707.611 C 445.816 706.899, 433.355 692.058, 424.196 681.500 C 423.242 680.400, 420.895 677.330, 418.980 674.678 C 407.514 658.790, 399.300 652, 391.546 652 C 388.533 652, 388.115 652.411, 386.202 657.250 M 669.869 792.007 C 667.872 793.062, 664.798 796.080, 663.039 798.713 C 660.093 803.123, 659.869 804.028, 660.201 810.216 C 660.514 816.044, 660.954 817.344, 663.531 820.036 C 668.310 825.029, 673.364 826.751, 680.474 825.809 C 685.844 825.096, 686.963 824.525, 690.750 820.563 C 695.106 816.005, 695.629 814.229, 695.040 806 C 694.658 800.662, 692.471 797.370, 686.745 793.514 C 680.662 789.418, 675.621 788.968, 669.869 792.007 M 1072.500 791.148 C 1062.477 796.599, 1059.364 801.547, 1060.293 810.549 C 1061.935 826.462, 1080.254 831.718, 1091.906 819.620 C 1095.013 816.393, 1095.320 815.530, 1095.406 809.791 C 1095.548 800.309, 1094.738 798.575, 1088.043 794.029 C 1081.821 789.804, 1076.713 788.857, 1072.500 791.148 M 742 1061.058 C 732.182 1065.190, 727.374 1079.172, 732.441 1088.855 C 734.692 1093.156, 743.985 1103.278, 751.500 1109.615 C 758.812 1115.780, 769.049 1123, 770.479 1123 C 770.937 1123, 772.709 1124.066, 774.417 1125.369 C 778.369 1128.383, 789.901 1133.790, 796.452 1135.699 C 799.228 1136.508, 802.512 1137.817, 803.748 1138.607 C 804.984 1139.397, 809.484 1140.760, 813.748 1141.637 C 818.012 1142.513, 822.789 1143.892, 824.365 1144.700 C 828.176 1146.655, 855.225 1150.085, 871.681 1150.700 C 885.744 1151.226, 918.421 1148.164, 928.471 1145.379 C 931.237 1144.612, 937.100 1143.058, 941.500 1141.924 C 945.900 1140.791, 951.835 1138.770, 954.688 1137.432 C 957.542 1136.094, 960.419 1135, 961.083 1135 C 961.747 1135, 965.565 1133.425, 969.567 1131.500 C 973.569 1129.575, 977.274 1128, 977.799 1128 C 978.325 1128, 979.283 1127.364, 979.928 1126.586 C 980.574 1125.809, 982.991 1124.218, 985.301 1123.051 C 992.551 1119.389, 998.460 1114.796, 1010.059 1103.806 C 1023.604 1090.972, 1026.644 1084.469, 1024.383 1073.165 C 1023.695 1069.725, 1016.984 1062.324, 1013.274 1060.914 C 1010.003 1059.671, 999.763 1059.759, 996.341 1061.061 C 994.806 1061.644, 989.870 1065.806, 985.370 1070.311 C 974.379 1081.313, 971.474 1084, 970.571 1084 C 970.152 1084, 968.500 1084.932, 966.900 1086.071 C 961.963 1089.587, 947.688 1096.708, 944 1097.496 C 942.075 1097.908, 938.901 1099.053, 936.946 1100.043 C 934.991 1101.032, 930.491 1102.343, 926.946 1102.956 C 923.401 1103.569, 917.350 1105.058, 913.500 1106.265 C 906.988 1108.306, 904.514 1108.461, 878 1108.480 C 853.421 1108.497, 848.675 1108.253, 843.500 1106.702 C 840.200 1105.714, 833.675 1104.089, 829 1103.091 C 817.662 1100.673, 799.261 1092.927, 788.218 1085.923 C 782.573 1082.344, 770.543 1072.077, 768.974 1069.500 C 768.304 1068.400, 765.984 1065.962, 763.819 1064.081 C 760.185 1060.924, 759.294 1060.637, 752.192 1060.334 C 747.961 1060.154, 743.375 1060.479, 742 1061.058 M 1345.496 1212.004 C 1344.499 1213.107, 1341.970 1214.469, 1339.878 1215.033 C 1337.785 1215.596, 1335.494 1216.873, 1334.787 1217.870 C 1334.079 1218.867, 1332.518 1220.204, 1331.318 1220.840 C 1330.117 1221.477, 1328.857 1222.875, 1328.517 1223.948 C 1328.176 1225.020, 1327.058 1226.164, 1326.032 1226.490 C 1325.007 1226.815, 1323.703 1228.413, 1323.136 1230.041 C 1322.568 1231.668, 1321.396 1233, 1320.531 1233 C 1319.665 1233, 1318.407 1234.237, 1317.734 1235.750 C 1316.471 1238.588, 1308.596 1247, 1307.202 1247 C 1306.769 1247, 1305.861 1249.070, 1305.185 1251.600 C 1304.370 1254.645, 1303.308 1256.368, 1302.040 1256.700 C 1300.987 1256.975, 1299.670 1258.508, 1299.113 1260.106 C 1298.556 1261.704, 1297.010 1263.426, 1295.677 1263.933 C 1294.344 1264.440, 1292.970 1265.982, 1292.624 1267.360 C 1292.278 1268.739, 1291.096 1270.152, 1289.998 1270.501 C 1288.899 1270.849, 1288 1271.776, 1288 1272.560 C 1288 1274.050, 1273.061 1291.537, 1269.849 1293.807 C 1268.832 1294.525, 1268 1295.751, 1268 1296.531 C 1268 1297.311, 1266.682 1298.630, 1265.071 1299.463 C 1263.460 1300.296, 1261.862 1301.860, 1261.520 1302.938 C 1261.178 1304.016, 1260.098 1305.151, 1259.121 1305.462 C 1258.144 1305.772, 1255.130 1308.292, 1252.422 1311.061 C 1249.715 1313.831, 1245.700 1317.182, 1243.500 1318.507 C 1241.300 1319.832, 1238.934 1321.836, 1238.242 1322.958 C 1237.549 1324.081, 1236.412 1325, 1235.714 1325 C 1235.016 1325, 1233.249 1326.237, 1231.788 1327.750 C 1230.326 1329.263, 1227.590 1331.802, 1225.708 1333.393 C 1223.826 1334.984, 1220.712 1337.747, 1218.787 1339.532 C 1216.863 1341.317, 1213.936 1343.075, 1212.283 1343.438 C 1210.461 1343.838, 1208.836 1345.064, 1208.160 1346.549 C 1207.505 1347.986, 1206.198 1349, 1205 1349 C 1203.786 1349, 1202.490 1350.024, 1201.807 1351.524 C 1201.175 1352.912, 1199.659 1354.299, 1198.439 1354.605 C 1197.219 1354.911, 1195.296 1356.225, 1194.166 1357.524 C 1193.037 1358.823, 1190.296 1360.430, 1188.075 1361.096 C 1185.791 1361.780, 1183.788 1363.094, 1183.461 1364.121 C 1182.924 1365.815, 1177.581 1367.982, 1173.911 1367.994 C 1173.036 1367.997, 1171.835 1369.067, 1171.240 1370.372 C 1170.646 1371.676, 1168.887 1373.061, 1167.330 1373.449 C 1165.773 1373.838, 1163.675 1374.908, 1162.667 1375.828 C 1161.658 1376.748, 1157.871 1377.950, 1154.250 1378.500 C 1148.168 1379.424, 1147.593 1379.729, 1146.706 1382.500 C 1146.178 1384.150, 1144.912 1386.419, 1143.893 1387.543 C 1142.874 1388.667, 1141.548 1390.999, 1140.945 1392.727 C 1140.343 1394.455, 1138.759 1396.583, 1137.425 1397.457 C 1136.091 1398.331, 1135 1399.732, 1135 1400.571 C 1135 1401.409, 1133.926 1403.091, 1132.614 1404.307 C 1131.216 1405.602, 1129.341 1409.499, 1128.084 1413.719 C 1126.904 1417.679, 1125.503 1421.189, 1124.970 1421.519 C 1123.318 1422.540, 1123.898 1429.545, 1126.142 1435.661 C 1127.736 1440.004, 1129.868 1443.071, 1134.465 1447.633 C 1137.864 1451.006, 1142.021 1454.476, 1143.701 1455.346 C 1145.382 1456.215, 1147.023 1457.618, 1147.347 1458.463 C 1147.672 1459.308, 1148.592 1460, 1149.392 1460 C 1150.192 1460, 1152.910 1461.575, 1155.432 1463.500 C 1160.818 1467.611, 1165.365 1468.074, 1169.376 1464.919 C 1171.227 1463.463, 1175.099 1462.385, 1182.261 1461.332 C 1189.505 1460.267, 1193.117 1459.255, 1194.609 1457.872 C 1195.769 1456.796, 1198.469 1455.447, 1200.609 1454.873 C 1202.749 1454.299, 1205.198 1452.940, 1206.051 1451.853 C 1206.904 1450.766, 1209.560 1449.437, 1211.953 1448.899 C 1214.346 1448.361, 1217.649 1446.790, 1219.292 1445.408 C 1220.935 1444.025, 1223.549 1442.640, 1225.102 1442.330 C 1226.654 1442.019, 1228.626 1440.693, 1229.485 1439.383 C 1230.344 1438.072, 1231.668 1437, 1232.428 1437 C 1233.189 1437, 1235.696 1435.425, 1238 1433.500 C 1240.304 1431.575, 1242.995 1430, 1243.980 1430 C 1244.964 1430, 1246.481 1428.915, 1247.350 1427.589 C 1248.218 1426.263, 1250.633 1424.622, 1252.715 1423.941 C 1254.797 1423.261, 1257.491 1421.646, 1258.702 1420.352 C 1259.913 1419.059, 1261.516 1418, 1262.264 1418 C 1263.012 1418, 1264.622 1416.650, 1265.842 1415 C 1267.062 1413.350, 1268.537 1412, 1269.120 1412 C 1270.016 1412, 1278.308 1405.491, 1282.815 1401.250 C 1283.545 1400.563, 1284.999 1400, 1286.046 1400 C 1287.149 1400, 1288.601 1398.739, 1289.500 1397 C 1290.353 1395.350, 1291.684 1394, 1292.458 1394 C 1293.231 1394, 1294.825 1392.650, 1296 1391 C 1297.175 1389.350, 1298.781 1388, 1299.568 1388 C 1300.356 1388, 1301 1387.550, 1301 1387 C 1301 1386.450, 1302.013 1385.088, 1303.250 1383.974 C 1313.220 1374.997, 1320.208 1368.336, 1334.861 1353.846 C 1345.238 1343.585, 1349.429 1339.039, 1350.620 1336.750 C 1351.407 1335.237, 1352.703 1334, 1353.500 1334 C 1354.297 1334, 1355.619 1332.705, 1356.437 1331.121 C 1357.256 1329.538, 1358.622 1327.975, 1359.472 1327.649 C 1360.322 1327.323, 1361.532 1325.927, 1362.160 1324.547 C 1362.789 1323.167, 1364.140 1321.773, 1365.163 1321.448 C 1366.185 1321.124, 1367.687 1319.572, 1368.500 1318 C 1369.313 1316.428, 1370.883 1314.855, 1371.989 1314.503 C 1373.095 1314.152, 1374 1313.006, 1374 1311.956 C 1374 1310.905, 1375.158 1309.287, 1376.573 1308.360 C 1377.989 1307.433, 1379.827 1304.974, 1380.658 1302.896 C 1381.489 1300.819, 1383.256 1298.407, 1384.585 1297.536 C 1385.913 1296.666, 1387 1295.300, 1387 1294.500 C 1387 1293.700, 1388.125 1292.309, 1389.500 1291.408 C 1390.875 1290.507, 1392 1289.121, 1392 1288.329 C 1392 1287.536, 1393.303 1285.675, 1394.895 1284.194 C 1396.809 1282.413, 1398.025 1280.058, 1398.484 1277.244 C 1398.896 1274.718, 1399.988 1272.421, 1401.172 1271.592 C 1403.783 1269.763, 1404.964 1264.356, 1404.903 1254.500 C 1404.830 1242.666, 1403.753 1236.753, 1401.206 1234.206 C 1399.993 1232.993, 1399 1231.326, 1399 1230.503 C 1399 1228.572, 1392.412 1221.266, 1389.973 1220.492 C 1388.944 1220.165, 1387.840 1219.070, 1387.519 1218.059 C 1387.159 1216.925, 1385.295 1215.808, 1382.652 1215.142 C 1380.295 1214.549, 1377.540 1213.149, 1376.529 1212.032 C 1374.851 1210.178, 1373.492 1210, 1361 1210 C 1348.570 1210, 1347.143 1210.185, 1345.496 1212.004 M 768.548 1270.703 C 758.050 1270.951, 753.135 1271.449, 752.048 1272.376 C 749.537 1274.517, 747.323 1274.995, 735.395 1275.967 C 726.560 1276.687, 723.455 1277.340, 721.284 1278.934 C 719.753 1280.057, 716.189 1281.411, 713.365 1281.941 C 710.540 1282.471, 706.630 1283.990, 704.676 1285.316 C 702.455 1286.823, 698.933 1287.976, 695.287 1288.388 C 691.169 1288.854, 688.598 1289.782, 686.552 1291.540 C 684.957 1292.911, 681.868 1294.317, 679.689 1294.666 C 677.367 1295.037, 674.880 1296.273, 673.683 1297.650 C 672.559 1298.942, 671.060 1300, 670.353 1300 C 668.445 1300, 654.590 1312.923, 655.511 1313.844 C 655.834 1314.167, 659.114 1314.760, 662.799 1315.161 C 675.026 1316.493, 684.469 1317.976, 687 1318.960 C 688.375 1319.495, 693.376 1320.339, 698.113 1320.835 C 704.225 1321.475, 707.564 1322.348, 709.613 1323.840 C 712.031 1325.601, 714.854 1326.107, 727 1326.953 C 734.975 1327.509, 743.750 1328.427, 746.500 1328.994 C 758.775 1331.522, 765.674 1332.030, 800.500 1332.963 C 820.850 1333.509, 848.497 1334.491, 861.937 1335.145 C 880.902 1336.067, 890.306 1336.064, 903.937 1335.131 C 913.597 1334.470, 940.624 1333.495, 963.997 1332.964 C 1001.838 1332.104, 1007.152 1331.784, 1012.497 1330.041 C 1015.799 1328.964, 1023.301 1327.655, 1029.170 1327.131 C 1037.737 1326.366, 1040.709 1325.669, 1044.257 1323.589 C 1046.687 1322.165, 1050.214 1321, 1052.094 1321 C 1056.980 1321, 1062.012 1319.366, 1063.530 1317.288 C 1064.664 1315.734, 1067.106 1315.421, 1082.168 1314.895 C 1091.700 1314.563, 1099.678 1314.225, 1099.896 1314.145 C 1100.114 1314.065, 1099.101 1312.896, 1097.646 1311.548 C 1096.191 1310.199, 1095 1308.679, 1095 1308.169 C 1095 1307.660, 1093.693 1306.701, 1092.095 1306.039 C 1090.498 1305.378, 1088.977 1304.022, 1088.717 1303.027 C 1088.403 1301.825, 1086.893 1300.989, 1084.224 1300.538 C 1081.608 1300.096, 1079.294 1298.836, 1077.595 1296.929 C 1075.791 1294.905, 1074.045 1294, 1071.945 1294 C 1069.949 1294, 1068.070 1293.100, 1066.476 1291.380 C 1064.771 1289.539, 1062.692 1288.607, 1059.491 1288.246 C 1056.312 1287.888, 1054.380 1287.027, 1053.099 1285.399 C 1051.896 1283.870, 1049.754 1282.844, 1046.882 1282.421 C 1044.472 1282.067, 1040.820 1280.701, 1038.766 1279.385 C 1035.456 1277.264, 1033.265 1276.887, 1019.463 1276.060 C 1007.507 1275.344, 1002.921 1274.671, 999.698 1273.159 C 995.624 1271.249, 992.378 1271.178, 889.500 1270.771 C 831.200 1270.540, 776.772 1270.509, 768.548 1270.703 M 634.336 1325.524 C 627.758 1332.313, 615.687 1348.319, 611.860 1355.327 C 611.507 1355.972, 609.764 1358.975, 607.985 1362 C 606.206 1365.025, 603.948 1369.750, 602.968 1372.500 C 601.988 1375.250, 599.972 1380.650, 598.489 1384.500 C 592.354 1400.424, 589.345 1415.167, 587.416 1438.750 C 585.794 1458.589, 591.515 1497.037, 600.472 1526.500 C 601.810 1530.900, 603.178 1536.631, 603.511 1539.235 C 604.172 1544.388, 606.625 1547, 610.806 1547 C 612.104 1547, 616.657 1547.891, 620.923 1548.980 C 625.189 1550.070, 634.264 1551.577, 641.090 1552.330 C 648.802 1553.182, 655.204 1554.468, 658 1555.729 C 660.659 1556.928, 666.648 1558.183, 672.641 1558.797 C 678.281 1559.375, 684.247 1560.594, 686.084 1561.543 C 687.901 1562.483, 693.820 1563.871, 699.238 1564.628 C 704.657 1565.386, 710.757 1566.829, 712.795 1567.837 C 714.833 1568.844, 721.020 1570.177, 726.545 1570.799 C 732.069 1571.422, 738.594 1572.797, 741.045 1573.855 C 743.899 1575.087, 750.171 1576.200, 758.500 1576.952 C 765.650 1577.598, 775.550 1579.073, 780.500 1580.230 C 789.252 1582.276, 791.775 1582.336, 872 1582.398 C 952.598 1582.460, 954.719 1582.413, 964 1580.336 C 969.225 1579.167, 980.025 1577.660, 988 1576.987 C 996.125 1576.301, 1004.986 1574.945, 1008.155 1573.902 C 1011.265 1572.880, 1019.365 1571.387, 1026.155 1570.585 C 1032.945 1569.784, 1039.850 1568.452, 1041.500 1567.627 C 1043.150 1566.802, 1048.550 1565.580, 1053.500 1564.912 C 1058.450 1564.244, 1064.126 1562.888, 1066.114 1561.898 C 1068.102 1560.908, 1073.789 1559.444, 1078.752 1558.645 C 1083.715 1557.847, 1088.895 1556.460, 1090.263 1555.563 C 1091.631 1554.667, 1097.419 1553.309, 1103.125 1552.546 C 1108.831 1551.783, 1114.892 1550.450, 1116.593 1549.585 C 1118.294 1548.719, 1123.439 1547.355, 1128.026 1546.554 C 1132.733 1545.732, 1136.701 1544.499, 1137.136 1543.722 C 1137.559 1542.966, 1139.727 1541.525, 1141.953 1540.521 C 1144.179 1539.518, 1146 1538.351, 1146 1537.930 C 1146 1537.508, 1147.555 1536.202, 1149.456 1535.027 C 1152.437 1533.185, 1153.251 1531.766, 1155.387 1524.696 C 1163.084 1499.210, 1166.409 1481.403, 1164.009 1478.511 C 1163.320 1477.680, 1162.226 1477, 1161.579 1477 C 1160.932 1477, 1158.569 1475.313, 1156.327 1473.250 C 1154.085 1471.188, 1150.732 1468.477, 1148.875 1467.228 C 1137.340 1459.461, 1133.995 1456.880, 1128.480 1451.493 C 1125.097 1448.189, 1121.846 1444.580, 1121.254 1443.475 C 1119.578 1440.343, 1118.788 1426.259, 1119.842 1418.317 C 1120.531 1413.129, 1121.519 1410.186, 1123.398 1407.723 C 1124.829 1405.846, 1126 1403.869, 1126 1403.329 C 1126 1402.788, 1128.531 1399.047, 1131.624 1395.015 C 1134.717 1390.984, 1137.649 1386.235, 1138.138 1384.463 C 1138.627 1382.690, 1140.371 1379.549, 1142.014 1377.483 C 1143.656 1375.416, 1145 1373.354, 1145 1372.901 C 1145 1372.449, 1145.961 1371.182, 1147.136 1370.088 L 1149.272 1368.098 1146.980 1362.299 C 1145.720 1359.110, 1143.721 1355.150, 1142.539 1353.500 C 1141.357 1351.850, 1139.207 1348.475, 1137.761 1346 C 1136.316 1343.525, 1132.178 1338.168, 1128.566 1334.095 C 1124.955 1330.022, 1122 1326.380, 1122 1326.002 C 1122 1325.623, 1119.755 1323.420, 1117.012 1321.107 L 1112.024 1316.901 1107.329 1319.653 C 1102.738 1322.343, 1102.317 1322.400, 1088.566 1322.161 C 1073.099 1321.893, 1060.335 1323.707, 1054.738 1326.969 C 1052.957 1328.007, 1048.709 1329.355, 1045.297 1329.964 C 1041.885 1330.573, 1037.047 1331.976, 1034.546 1333.083 C 1030.758 1334.758, 1026.446 1335.257, 1008.749 1336.065 C 997.062 1336.598, 981.875 1337.712, 975 1338.539 C 952.206 1341.281, 933.983 1341.970, 884 1341.981 C 832.588 1341.991, 806.699 1340.961, 794.644 1338.425 C 790.126 1337.475, 777.134 1336.627, 758.543 1336.071 C 733.415 1335.318, 728.691 1334.926, 723.500 1333.160 C 720.200 1332.038, 713.900 1330.604, 709.500 1329.973 C 705.100 1329.342, 699.475 1327.913, 697 1326.797 C 693.525 1325.230, 689.084 1324.573, 677.500 1323.913 C 658.162 1322.811, 655.686 1322.359, 652.935 1319.431 C 651.250 1317.637, 649.596 1317, 646.624 1317 C 642.881 1317, 642.011 1317.603, 634.336 1325.524" stroke="none" fill="#2155cd" fill-rule="evenodd"/></svg>