<?xml version="1.0" standalone="no"?>
<svg xmlns:xlink="http://www.w3.org/1999/xlink" id="wave" style="transform:rotate(0deg); transition: 0.3s" viewBox="0 0 1440 470" version="1.1" xmlns="http://www.w3.org/2000/svg"><defs><linearGradient id="sw-gradient-0" x1="0" x2="0" y1="1" y2="0"><stop stop-color="rgba(149, 209, 204, 1)" offset="0%"/><stop stop-color="rgba(149, 209, 204, 1)" offset="100%"/></linearGradient></defs><path style="transform:translate(0, 0px); opacity:1" fill="url(#sw-gradient-0)" d="M0,282L60,242.8C120,204,240,125,360,101.8C480,78,600,110,720,172.3C840,235,960,329,1080,321.2C1200,313,1320,204,1440,203.7C1560,204,1680,313,1800,313.3C1920,313,2040,204,2160,203.7C2280,204,2400,313,2520,344.7C2640,376,2760,329,2880,305.5C3000,282,3120,282,3240,297.7C3360,313,3480,345,3600,329C3720,313,3840,251,3960,235C4080,219,4200,251,4320,282C4440,313,4560,345,4680,368.2C4800,392,4920,407,5040,391.7C5160,376,5280,329,5400,329C5520,329,5640,376,5760,336.8C5880,298,6000,172,6120,164.5C6240,157,6360,266,6480,297.7C6600,329,6720,282,6840,274.2C6960,266,7080,298,7200,305.5C7320,313,7440,298,7560,282C7680,266,7800,251,7920,266.3C8040,282,8160,329,8280,329C8400,329,8520,282,8580,258.5L8640,235L8640,470L8580,470C8520,470,8400,470,8280,470C8160,470,8040,470,7920,470C7800,470,7680,470,7560,470C7440,470,7320,470,7200,470C7080,470,6960,470,6840,470C6720,470,6600,470,6480,470C6360,470,6240,470,6120,470C6000,470,5880,470,5760,470C5640,470,5520,470,5400,470C5280,470,5160,470,5040,470C4920,470,4800,470,4680,470C4560,470,4440,470,4320,470C4200,470,4080,470,3960,470C3840,470,3720,470,3600,470C3480,470,3360,470,3240,470C3120,470,3000,470,2880,470C2760,470,2640,470,2520,470C2400,470,2280,470,2160,470C2040,470,1920,470,1800,470C1680,470,1560,470,1440,470C1320,470,1200,470,1080,470C960,470,840,470,720,470C600,470,480,470,360,470C240,470,120,470,60,470L0,470Z"/></svg>