<?xml version="1.0" standalone="no"?>
<svg xmlns:xlink="http://www.w3.org/1999/xlink" id="wave" style="transform:rotate(0deg); transition: 0.3s" viewBox="0 0 1440 470" version="1.1" xmlns="http://www.w3.org/2000/svg"><defs><linearGradient id="sw-gradient-0" x1="0" x2="0" y1="1" y2="0"><stop stop-color="rgba(149, 209, 204, 1)" offset="0%"/><stop stop-color="rgba(149, 209, 204, 1)" offset="100%"/></linearGradient></defs><path style="transform:translate(0, 0px); opacity:1" fill="url(#sw-gradient-0)" d="M0,423L48,352.5C96,282,192,141,288,78.3C384,16,480,31,576,78.3C672,125,768,204,864,195.8C960,188,1056,94,1152,86.2C1248,78,1344,157,1440,211.5C1536,266,1632,298,1728,274.2C1824,251,1920,172,2016,164.5C2112,157,2208,219,2304,274.2C2400,329,2496,376,2592,329C2688,282,2784,141,2880,125.3C2976,110,3072,219,3168,219.3C3264,219,3360,110,3456,78.3C3552,47,3648,94,3744,94C3840,94,3936,47,4032,47C4128,47,4224,94,4320,133.2C4416,172,4512,204,4608,235C4704,266,4800,298,4896,313.3C4992,329,5088,329,5184,329C5280,329,5376,329,5472,336.8C5568,345,5664,360,5760,368.2C5856,376,5952,376,6048,360.3C6144,345,6240,313,6336,250.7C6432,188,6528,94,6624,86.2C6720,78,6816,157,6864,195.8L6912,235L6912,470L6864,470C6816,470,6720,470,6624,470C6528,470,6432,470,6336,470C6240,470,6144,470,6048,470C5952,470,5856,470,5760,470C5664,470,5568,470,5472,470C5376,470,5280,470,5184,470C5088,470,4992,470,4896,470C4800,470,4704,470,4608,470C4512,470,4416,470,4320,470C4224,470,4128,470,4032,470C3936,470,3840,470,3744,470C3648,470,3552,470,3456,470C3360,470,3264,470,3168,470C3072,470,2976,470,2880,470C2784,470,2688,470,2592,470C2496,470,2400,470,2304,470C2208,470,2112,470,2016,470C1920,470,1824,470,1728,470C1632,470,1536,470,1440,470C1344,470,1248,470,1152,470C1056,470,960,470,864,470C768,470,672,470,576,470C480,470,384,470,288,470C192,470,96,470,48,470L0,470Z"/></svg>