<?xml version="1.0" standalone="no"?>
<svg xmlns:xlink="http://www.w3.org/1999/xlink" id="wave" style="transform:rotate(0deg); transition: 0.3s" viewBox="0 0 1440 490" version="1.1" xmlns="http://www.w3.org/2000/svg"><defs><linearGradient id="sw-gradient-0" x1="0" x2="0" y1="1" y2="0"><stop stop-color="rgba(149, 209, 204, 1)" offset="0%"/><stop stop-color="rgba(149, 209, 204, 1)" offset="100%"/></linearGradient></defs><path style="transform:translate(0, 0px); opacity:1" fill="url(#sw-gradient-0)" d="M0,294L48,253.2C96,212,192,131,288,106.2C384,82,480,114,576,179.7C672,245,768,343,864,334.8C960,327,1056,212,1152,212.3C1248,212,1344,327,1440,326.7C1536,327,1632,212,1728,212.3C1824,212,1920,327,2016,359.3C2112,392,2208,343,2304,318.5C2400,294,2496,294,2592,310.3C2688,327,2784,359,2880,343C2976,327,3072,261,3168,245C3264,229,3360,261,3456,294C3552,327,3648,359,3744,383.8C3840,408,3936,425,4032,408.3C4128,392,4224,343,4320,343C4416,343,4512,392,4608,351.2C4704,310,4800,180,4896,171.5C4992,163,5088,278,5184,310.3C5280,343,5376,294,5472,285.8C5568,278,5664,310,5760,318.5C5856,327,5952,310,6048,294C6144,278,6240,261,6336,277.7C6432,294,6528,343,6624,343C6720,343,6816,294,6864,269.5L6912,245L6912,490L6864,490C6816,490,6720,490,6624,490C6528,490,6432,490,6336,490C6240,490,6144,490,6048,490C5952,490,5856,490,5760,490C5664,490,5568,490,5472,490C5376,490,5280,490,5184,490C5088,490,4992,490,4896,490C4800,490,4704,490,4608,490C4512,490,4416,490,4320,490C4224,490,4128,490,4032,490C3936,490,3840,490,3744,490C3648,490,3552,490,3456,490C3360,490,3264,490,3168,490C3072,490,2976,490,2880,490C2784,490,2688,490,2592,490C2496,490,2400,490,2304,490C2208,490,2112,490,2016,490C1920,490,1824,490,1728,490C1632,490,1536,490,1440,490C1344,490,1248,490,1152,490C1056,490,960,490,864,490C768,490,672,490,576,490C480,490,384,490,288,490C192,490,96,490,48,490L0,490Z"/></svg>